<svg width="446" height="540" viewBox="0 0 446 540" fill="none" xmlns="http://www.w3.org/2000/svg">
<path d="M0 209C0 191.327 14.3269 177 32 177H123C140.673 177 155 191.327 155 209V540H0L0 209Z" fill="#EF5C53"/>
<path d="M102.007 55.5145C102.007 37.8413 116.334 23.5145 134.007 23.5145H252.016C269.69 23.5145 284.016 37.8414 284.016 55.5145V386.298H102.007V55.5145Z" fill="#FDD444"/>
<path d="M268.599 23.6109C273.749 6.70497 291.63 -2.82693 308.537 2.32081L422.388 36.9857C439.294 42.1335 448.825 60.0116 443.674 76.9175L303.259 537.817L128.183 484.511L268.599 23.6109Z" fill="#052A44"/>
</svg>
