<svg width="99" height="49" viewBox="0 0 99 49" fill="none" xmlns="http://www.w3.org/2000/svg">
<path d="M6.579 47.699C6.579 47.8997 6.46433 48 6.235 48H3.741C3.54033 48 3.44 47.8997 3.44 47.699V19.405C3.44 19.1757 3.54033 19.061 3.741 19.061H6.235C6.46433 19.061 6.579 19.1757 6.579 19.405V47.699ZM13.2191 48C12.9898 48 12.8751 47.8853 12.8751 47.656C12.8751 44.6173 12.8751 41.5787 12.8751 38.54C12.8751 35.5013 12.8751 32.4483 12.8751 29.381C12.8751 29.209 12.9325 29.0657 13.0471 28.951C13.1618 28.8077 13.4198 28.6643 13.8211 28.521C14.1938 28.4063 14.7385 28.2773 15.4551 28.134C16.2005 27.962 16.9888 27.8043 17.8201 27.661C18.6801 27.5177 19.4685 27.446 20.1851 27.446C22.3925 27.446 24.0838 27.876 25.2591 28.736C26.4631 29.596 27.2945 30.7713 27.7531 32.262C28.2118 33.724 28.4411 35.3437 28.4411 37.121C28.4411 38.4397 28.4125 39.7727 28.3551 41.12C28.2978 42.4387 28.2261 43.657 28.1401 44.775C28.0828 45.893 28.0255 46.7817 27.9681 47.441C27.9395 47.699 27.8821 47.8567 27.7961 47.914C27.7388 47.9713 27.5811 48 27.3231 48H25.4741C25.2448 48 25.0871 47.9713 25.0011 47.914C24.9151 47.828 24.8865 47.6847 24.9151 47.484C24.9151 47.312 24.9295 46.8533 24.9581 46.108C25.0155 45.3627 25.0728 44.474 25.1301 43.442C25.1875 42.3813 25.2305 41.292 25.2591 40.174C25.3165 39.0273 25.3451 37.981 25.3451 37.035C25.3451 35.487 25.1588 34.197 24.7861 33.165C24.4135 32.133 23.8401 31.359 23.0661 30.843C22.3208 30.327 21.3461 30.069 20.1421 30.069C19.5115 30.069 18.8951 30.1263 18.2931 30.241C17.6911 30.3557 17.1465 30.499 16.6591 30.671C16.4871 30.6997 16.3151 30.8 16.1431 30.972C15.9998 31.1153 15.9281 31.3733 15.9281 31.746C15.9281 33.3513 15.9281 35.0427 15.9281 36.82C15.9281 38.5973 15.9281 40.4033 15.9281 42.238C15.9281 44.044 15.9281 45.85 15.9281 47.656C15.9281 47.8853 15.8278 48 15.6271 48H13.2191ZM38.5603 48C38.3596 48 38.2163 47.914 38.1303 47.742C37.4423 46.538 36.8259 45.2623 36.2812 43.915C35.7366 42.539 35.2206 41.1773 34.7333 39.83C33.9593 37.5367 33.3286 35.4153 32.8413 33.466C32.3539 31.5167 32.0099 29.8253 31.8093 28.392C31.7233 27.9333 31.8093 27.704 32.0673 27.704H34.5613C34.6759 27.704 34.7763 27.747 34.8623 27.833C34.9483 27.8903 35.0056 27.9907 35.0343 28.134C35.1489 29.1087 35.3496 30.2697 35.6363 31.617C35.9516 32.9357 36.3099 34.3547 36.7113 35.874C37.1699 37.5653 37.6429 39.1133 38.1303 40.518C38.6176 41.9227 39.0619 43.012 39.4633 43.786C39.5206 43.958 39.5923 44.0297 39.6783 44.001C39.7929 43.9723 39.8789 43.9007 39.9363 43.786C40.2803 43.1553 40.6529 42.2523 41.0543 41.077C41.4843 39.873 41.9143 38.5113 42.3443 36.992C42.7743 35.3293 43.1613 33.681 43.5053 32.047C43.8779 30.3843 44.1216 29.037 44.2363 28.005C44.2649 27.8043 44.3653 27.704 44.5373 27.704H47.1173C47.2893 27.704 47.3609 27.8043 47.3323 28.005C47.1029 29.553 46.7589 31.316 46.3003 33.294C45.8416 35.272 45.2396 37.336 44.4943 39.486C44.0643 40.862 43.5483 42.2523 42.9463 43.657C42.3729 45.033 41.7423 46.3947 41.0543 47.742C40.9683 47.914 40.8393 48 40.6673 48H38.5603ZM49.927 37.809C49.927 36.4617 50.056 35.1717 50.314 33.939C50.6007 32.7063 51.0594 31.6027 51.69 30.628C52.3207 29.6247 53.1807 28.8507 54.27 28.306C55.388 27.7327 56.807 27.446 58.527 27.446C60.2757 27.446 61.6804 27.704 62.741 28.22C63.8017 28.736 64.59 29.424 65.106 30.284C65.6507 31.144 66.009 32.09 66.181 33.122C66.3817 34.154 66.482 35.186 66.482 36.218C66.482 37.2787 66.3674 37.938 66.138 38.196C65.9374 38.454 65.622 38.583 65.192 38.583H53.453C53.367 38.583 53.2667 38.6117 53.152 38.669C53.066 38.7263 53.023 38.884 53.023 39.142C53.023 40.4607 53.238 41.636 53.668 42.668C54.098 43.6713 54.7574 44.4597 55.646 45.033C56.5634 45.6063 57.71 45.893 59.086 45.893C60.032 45.893 61.021 45.7783 62.053 45.549C63.085 45.291 63.945 44.99 64.633 44.646C64.8624 44.5027 65.0487 44.4167 65.192 44.388C65.3354 44.3593 65.4644 44.474 65.579 44.732L66.138 45.807C66.224 45.979 66.2384 46.108 66.181 46.194C66.1524 46.2513 66.052 46.3373 65.88 46.452C64.9627 47.054 63.8447 47.5127 62.526 47.828C61.236 48.1147 59.9174 48.258 58.57 48.258C56.7927 48.258 55.345 48 54.227 47.484C53.109 46.9393 52.2347 46.194 51.604 45.248C50.9734 44.2733 50.529 43.1553 50.271 41.894C50.0417 40.6327 49.927 39.271 49.927 37.809ZM63.343 35.702C63.343 34.67 63.214 33.724 62.956 32.864C62.698 31.9753 62.2107 31.2587 61.494 30.714C60.806 30.1693 59.7884 29.897 58.441 29.897C57.4664 29.897 56.635 30.0833 55.947 30.456C55.259 30.8287 54.7144 31.316 54.313 31.918C53.9117 32.4913 53.6107 33.1363 53.41 33.853C53.2094 34.541 53.0804 35.2003 53.023 35.831C53.023 36.1177 53.0374 36.3183 53.066 36.433C53.1234 36.519 53.2667 36.562 53.496 36.562H62.612C62.8987 36.562 63.0994 36.519 63.214 36.433C63.3287 36.347 63.3717 36.1033 63.343 35.702ZM69.7484 44.431C69.777 44.2877 69.8344 44.2303 69.9204 44.259C70.035 44.259 70.1497 44.302 70.2644 44.388C70.723 44.6747 71.2964 44.9183 71.9844 45.119C72.6724 45.3197 73.3747 45.4773 74.0914 45.592C74.808 45.7067 75.4244 45.764 75.9404 45.764C76.743 45.764 77.5027 45.635 78.2194 45.377C78.936 45.119 79.5094 44.7177 79.9394 44.173C80.398 43.5997 80.6274 42.8687 80.6274 41.98C80.6274 40.9193 80.226 40.174 79.4234 39.744C78.6494 39.2853 77.388 38.9413 75.6394 38.712C74.55 38.5687 73.5324 38.325 72.5864 37.981C71.669 37.6083 70.9237 37.0637 70.3504 36.347C69.8057 35.6303 69.5334 34.67 69.5334 33.466C69.5334 32.1473 69.8774 31.058 70.5654 30.198C71.2534 29.3093 72.1564 28.6357 73.2744 28.177C74.3924 27.7183 75.582 27.489 76.8434 27.489C77.8754 27.489 78.979 27.6323 80.1544 27.919C81.3297 28.2057 82.2614 28.5927 82.9494 29.08C83.0927 29.1373 83.1644 29.209 83.1644 29.295C83.1644 29.3523 83.15 29.4383 83.1214 29.553L82.5624 31.23C82.505 31.4593 82.333 31.488 82.0464 31.316C81.5017 30.9433 80.7277 30.6137 79.7244 30.327C78.7497 30.0403 77.7894 29.897 76.8434 29.897C75.5534 29.897 74.507 30.2267 73.7044 30.886C72.9017 31.5167 72.5004 32.305 72.5004 33.251C72.5004 34.2257 72.9017 34.928 73.7044 35.358C74.5357 35.788 75.668 36.089 77.1014 36.261C78.0474 36.3757 78.9074 36.5477 79.6814 36.777C80.4554 36.9777 81.129 37.2787 81.7024 37.68C82.2757 38.0527 82.72 38.5687 83.0354 39.228C83.3507 39.8873 83.5084 40.7187 83.5084 41.722C83.5084 42.9547 83.279 43.9867 82.8204 44.818C82.3617 45.6493 81.7454 46.323 80.9714 46.839C80.226 47.3263 79.3947 47.6847 78.4774 47.914C77.56 48.1147 76.657 48.215 75.7684 48.215C75.3384 48.215 74.7364 48.1577 73.9624 48.043C73.1884 47.9283 72.4 47.7563 71.5974 47.527C70.8234 47.2977 70.1784 47.011 69.6624 46.667C69.5477 46.6097 69.4617 46.5523 69.4044 46.495C69.3757 46.4377 69.3757 46.3517 69.4044 46.237L69.7484 44.431ZM94.4542 48C92.6769 48 91.3582 47.6273 90.4982 46.882C89.6382 46.108 89.0792 45.033 88.8212 43.657C88.5632 42.453 88.4342 41.1917 88.4342 39.873C88.4342 38.5257 88.4342 37.1497 88.4342 35.745C88.4342 34.7703 88.4342 33.8387 88.4342 32.95C88.4629 32.0613 88.5059 31.1583 88.5632 30.241C88.5632 29.983 88.4485 29.854 88.2192 29.854H86.0262C85.9115 29.854 85.8255 29.8253 85.7682 29.768C85.7109 29.7107 85.6822 29.6247 85.6822 29.51V28.048C85.6822 27.9333 85.7109 27.8473 85.7682 27.79C85.8255 27.7327 85.9259 27.704 86.0692 27.704H88.2622C88.4055 27.704 88.5059 27.6753 88.5632 27.618C88.6205 27.532 88.6492 27.3887 88.6492 27.188L88.8642 23.533C88.8642 23.3323 88.9502 23.232 89.1222 23.232H91.5302C91.6162 23.232 91.6879 23.2607 91.7452 23.318C91.8312 23.3753 91.8742 23.447 91.8742 23.533L91.7022 27.188C91.6735 27.3887 91.6735 27.532 91.7022 27.618C91.7595 27.6753 91.8599 27.704 92.0032 27.704H97.0342C97.1775 27.704 97.2635 27.7327 97.2922 27.79C97.3495 27.8187 97.3782 27.919 97.3782 28.091V29.467C97.3782 29.5817 97.3495 29.682 97.2922 29.768C97.2349 29.8253 97.1345 29.854 96.9912 29.854H92.0032C91.8885 29.854 91.7882 29.897 91.7022 29.983C91.6162 30.0403 91.5732 30.155 91.5732 30.327C91.5445 31.2443 91.5159 32.176 91.4872 33.122C91.4585 34.068 91.4442 35.0283 91.4442 36.003C91.4442 37.1783 91.4442 38.3823 91.4442 39.615C91.4729 40.819 91.6162 41.9943 91.8742 43.141C92.0462 43.9437 92.3615 44.5457 92.8202 44.947C93.3075 45.3483 94.0529 45.549 95.0562 45.549C95.4575 45.549 95.8589 45.506 96.2602 45.42C96.6615 45.3053 97.0629 45.1907 97.4642 45.076C97.6649 44.9613 97.7939 44.9183 97.8512 44.947C97.9085 44.9757 97.9659 45.076 98.0232 45.248L98.4962 46.667C98.5535 46.839 98.5249 46.968 98.4102 47.054C98.3242 47.14 98.1379 47.2547 97.8512 47.398C97.5359 47.5127 97.1489 47.6273 96.6902 47.742C96.2602 47.828 95.8445 47.8997 95.4432 47.957C95.0419 47.9857 94.7122 48 94.4542 48Z" fill="#052A44"/>
<path d="M13.978 23.391C13.886 23.391 13.8017 23.3603 13.725 23.299C13.679 23.253 13.6253 23.2147 13.564 23.184C13.5027 23.1533 13.449 23.115 13.403 23.069C13.357 23.0383 13.311 23.0077 13.265 22.977C13.2343 22.931 13.2037 22.8927 13.173 22.862C13.1117 22.77 13.058 22.678 13.012 22.586C12.9813 22.4787 12.9737 22.3713 12.989 22.264C13.0197 22.0953 13.035 21.9343 13.035 21.781C13.0503 21.6123 13.0657 21.4513 13.081 21.298C13.0963 21.2213 13.104 21.1447 13.104 21.068C13.1193 20.976 13.127 20.8917 13.127 20.815C13.127 20.631 13.127 20.447 13.127 20.263C13.1423 20.079 13.1653 19.895 13.196 19.711V19.665C13.2113 19.1897 13.2267 18.722 13.242 18.262C13.2727 17.7867 13.288 17.3113 13.288 16.836C13.2727 16.4833 13.265 16.1307 13.265 15.778C13.265 15.4253 13.265 15.0803 13.265 14.743C13.265 14.5743 13.265 14.4133 13.265 14.26C13.2803 14.1067 13.2727 13.9533 13.242 13.8C13.2267 13.5393 13.2113 13.2863 13.196 13.041C13.196 12.7957 13.196 12.5503 13.196 12.305C13.196 12.259 13.1883 12.213 13.173 12.167C13.173 12.121 13.173 12.075 13.173 12.029C13.1577 11.9677 13.15 11.9063 13.15 11.845C13.15 11.7683 13.1423 11.6993 13.127 11.638C13.127 11.5613 13.1193 11.4847 13.104 11.408C13.104 11.3313 13.0963 11.2623 13.081 11.201V11.04C13.0657 10.8713 13.0503 10.718 13.035 10.58C13.0197 10.4267 12.9967 10.2733 12.966 10.12C12.9507 9.99733 12.9353 9.867 12.92 9.729C12.92 9.591 12.92 9.453 12.92 9.315C12.92 9.223 12.9507 9.154 13.012 9.108C13.0427 9.07733 13.058 9.039 13.058 8.993C13.0887 8.93167 13.104 8.878 13.104 8.832C13.15 8.70933 13.2113 8.63267 13.288 8.602C13.334 8.57133 13.3723 8.54833 13.403 8.533C13.449 8.50233 13.495 8.49467 13.541 8.51C13.6177 8.51 13.6637 8.487 13.679 8.441C13.7097 8.42567 13.7327 8.41033 13.748 8.395C13.7633 8.36433 13.7787 8.349 13.794 8.349C13.8707 8.349 13.9397 8.34133 14.001 8.326C14.0777 8.31067 14.1543 8.31833 14.231 8.349C14.323 8.37967 14.3997 8.395 14.461 8.395C14.5377 8.41033 14.5913 8.441 14.622 8.487C14.6527 8.51767 14.6833 8.533 14.714 8.533C14.7907 8.54833 14.8443 8.602 14.875 8.694C14.9057 8.72467 14.921 8.763 14.921 8.809C14.9363 8.83967 14.9517 8.86267 14.967 8.878C15.0437 8.95467 15.0667 9.04667 15.036 9.154C15.0053 9.32267 15.0053 9.49133 15.036 9.66C15.0513 9.706 15.0513 9.752 15.036 9.798C15.036 9.844 15.0437 9.89 15.059 9.936C15.059 10.0433 15.059 10.1507 15.059 10.258C15.0743 10.35 15.0897 10.4573 15.105 10.58C15.1203 10.6413 15.128 10.7027 15.128 10.764C15.128 10.81 15.128 10.8713 15.128 10.948C15.128 11.0553 15.128 11.178 15.128 11.316C15.128 11.4387 15.1357 11.5613 15.151 11.684C15.1663 11.7147 15.174 11.7683 15.174 11.845C15.174 11.9523 15.174 12.0597 15.174 12.167C15.1893 12.2743 15.2047 12.3817 15.22 12.489C15.266 12.719 15.289 12.9413 15.289 13.156C15.2737 13.2633 15.2737 13.3783 15.289 13.501C15.3043 13.6237 15.312 13.7463 15.312 13.869C15.312 13.8997 15.3273 13.915 15.358 13.915C15.3887 13.915 15.4117 13.9073 15.427 13.892C15.4577 13.8767 15.5037 13.8383 15.565 13.777L16.669 12.673C16.899 12.4123 17.152 12.1823 17.428 11.983C17.566 11.8757 17.6963 11.7683 17.819 11.661C17.9417 11.5383 18.0567 11.4157 18.164 11.293C18.3173 11.1243 18.463 10.9557 18.601 10.787C18.7543 10.6183 18.9077 10.4497 19.061 10.281C19.1377 10.2043 19.2067 10.12 19.268 10.028C19.3447 9.936 19.4137 9.844 19.475 9.752C19.567 9.64467 19.6513 9.545 19.728 9.453C19.82 9.34567 19.9197 9.246 20.027 9.154C20.073 9.12333 20.1113 9.09267 20.142 9.062C20.188 9.016 20.2417 8.98533 20.303 8.97C20.3183 8.97 20.326 8.97 20.326 8.97C20.3413 8.95467 20.349 8.947 20.349 8.947C20.5023 8.809 20.6557 8.786 20.809 8.878C20.855 8.90867 20.924 8.924 21.016 8.924C21.1387 8.924 21.246 8.97 21.338 9.062C21.3687 9.07733 21.3917 9.09267 21.407 9.108C21.4377 9.108 21.4607 9.11567 21.476 9.131H21.706C21.798 9.131 21.844 9.14633 21.844 9.177C21.8593 9.19233 21.8593 9.23833 21.844 9.315C21.8133 9.361 21.8287 9.407 21.89 9.453C21.9667 9.46833 21.9897 9.51433 21.959 9.591C21.9437 9.62167 21.959 9.66 22.005 9.706C22.051 9.73667 22.051 9.775 22.005 9.821C21.9283 9.94367 21.8823 10.0663 21.867 10.189C21.8363 10.2657 21.798 10.3423 21.752 10.419C21.7213 10.4803 21.6677 10.5493 21.591 10.626C21.407 10.7793 21.2383 10.9557 21.085 11.155C20.9317 11.339 20.7707 11.5307 20.602 11.73L20.464 11.868C20.3107 12.006 20.165 12.1517 20.027 12.305C19.9043 12.4583 19.7817 12.6117 19.659 12.765C19.4903 12.9643 19.3063 13.1637 19.107 13.363C18.923 13.547 18.739 13.731 18.555 13.915C18.463 14.007 18.394 14.0683 18.348 14.099C18.2713 14.1603 18.1947 14.2293 18.118 14.306C18.0413 14.3827 17.9647 14.467 17.888 14.559C17.8727 14.5897 17.842 14.6203 17.796 14.651C17.7653 14.6817 17.7347 14.7123 17.704 14.743C17.5967 14.8503 17.4893 14.9653 17.382 15.088C17.2747 15.1953 17.1597 15.3027 17.037 15.41C17.037 15.4253 17.0293 15.4407 17.014 15.456C17.014 15.456 17.014 15.4637 17.014 15.479C17.014 15.4943 17.0063 15.5097 16.991 15.525C16.991 15.5403 16.9987 15.5557 17.014 15.571C17.0293 15.617 17.0677 15.6707 17.129 15.732L17.796 16.353C17.934 16.4603 18.0643 16.583 18.187 16.721C18.3097 16.8437 18.4323 16.9663 18.555 17.089L18.785 17.365C18.8157 17.3957 18.8463 17.434 18.877 17.48C18.9077 17.5107 18.9383 17.5413 18.969 17.572C19.1377 17.71 19.3063 17.848 19.475 17.986C19.6437 18.124 19.8047 18.262 19.958 18.4L20.303 18.676C20.487 18.8293 20.6863 18.975 20.901 19.113C21.1157 19.251 21.3227 19.3813 21.522 19.504C21.6293 19.5653 21.729 19.6267 21.821 19.688C21.9283 19.734 22.0357 19.78 22.143 19.826C22.3423 19.918 22.5033 20.079 22.626 20.309C22.6413 20.3243 22.6567 20.355 22.672 20.401C22.6873 20.4317 22.7027 20.4623 22.718 20.493C22.7947 20.6617 22.8253 20.8227 22.81 20.976C22.81 21.0987 22.7947 21.183 22.764 21.229L22.695 21.413C22.6797 21.4743 22.649 21.5433 22.603 21.62C22.5723 21.6813 22.5187 21.735 22.442 21.781C22.4113 21.7963 22.3807 21.8347 22.35 21.896C22.2887 21.9573 22.235 21.988 22.189 21.988C22.1123 22.0033 22.028 22.0187 21.936 22.034C21.8593 22.0493 21.7827 22.0647 21.706 22.08C21.6447 22.0953 21.5833 22.103 21.522 22.103C21.4607 22.103 21.3993 22.0953 21.338 22.08C21.3227 22.0647 21.2997 22.057 21.269 22.057C21.2077 22.0417 21.1463 22.0263 21.085 22.011C21.039 21.9957 20.993 21.9803 20.947 21.965C20.901 21.9343 20.855 21.9037 20.809 21.873C20.7783 21.827 20.7477 21.7887 20.717 21.758C20.6863 21.7273 20.648 21.6967 20.602 21.666C20.556 21.6353 20.51 21.6123 20.464 21.597L20.119 21.39C20.1037 21.3593 20.073 21.3363 20.027 21.321C19.9963 21.2903 19.9657 21.2673 19.935 21.252C19.8737 21.2213 19.8353 21.1983 19.82 21.183C19.7587 21.1063 19.682 21.045 19.59 20.999C19.5133 20.953 19.4367 20.8993 19.36 20.838C19.2373 20.7307 19.107 20.631 18.969 20.539C18.8463 20.4317 18.7237 20.3243 18.601 20.217C18.3403 19.987 18.0797 19.757 17.819 19.527C17.5737 19.297 17.3283 19.0593 17.083 18.814C16.899 18.63 16.715 18.446 16.531 18.262C16.347 18.078 16.1477 17.894 15.933 17.71C15.8717 17.664 15.8103 17.618 15.749 17.572C15.703 17.526 15.6417 17.48 15.565 17.434C15.5497 17.4033 15.5267 17.3957 15.496 17.411C15.4807 17.4263 15.473 17.4493 15.473 17.48C15.4577 17.4953 15.45 17.5337 15.45 17.595V20.079C15.45 20.2323 15.45 20.3933 15.45 20.562C15.45 20.7153 15.4347 20.8763 15.404 21.045V21.39C15.3887 21.4973 15.381 21.6047 15.381 21.712C15.3963 21.8193 15.3963 21.9343 15.381 22.057V22.402C15.3657 22.448 15.3503 22.494 15.335 22.54C15.3197 22.586 15.2967 22.632 15.266 22.678C15.22 22.724 15.1817 22.7777 15.151 22.839C15.1203 22.885 15.0897 22.931 15.059 22.977C15.0283 23.0077 14.9977 23.023 14.967 23.023C14.9057 23.0383 14.8443 23.069 14.783 23.115C14.737 23.161 14.6757 23.1993 14.599 23.23C14.4917 23.322 14.3613 23.368 14.208 23.368C14.1773 23.3527 14.139 23.3527 14.093 23.368C14.0623 23.3833 14.024 23.391 13.978 23.391Z" fill="#FDD444"/>
<path d="M26.4846 23.23C26.3926 23.23 26.3313 23.2223 26.3006 23.207C26.2393 23.1763 26.1856 23.1533 26.1396 23.138C26.0936 23.1227 26.0476 23.1073 26.0016 23.092C25.9556 23.0613 25.9096 23.0307 25.8636 23C25.8329 22.954 25.8023 22.908 25.7716 22.862C25.7409 22.8313 25.7103 22.816 25.6796 22.816C25.5876 22.816 25.5416 22.77 25.5416 22.678C25.5263 22.586 25.5109 22.494 25.4956 22.402C25.4803 22.31 25.4649 22.218 25.4496 22.126C25.4343 21.988 25.4189 21.85 25.4036 21.712C25.4036 21.574 25.3883 21.4437 25.3576 21.321V21.114C25.3576 21.0527 25.3499 20.999 25.3346 20.953C25.3346 20.907 25.3346 20.8533 25.3346 20.792C25.3039 20.7153 25.3039 20.654 25.3346 20.608C25.3653 20.332 25.3653 20.056 25.3346 19.78C25.3193 19.7033 25.3116 19.6267 25.3116 19.55C25.3116 19.4733 25.3039 19.3967 25.2886 19.32C25.2886 19.1667 25.2886 19.0133 25.2886 18.86C25.2886 18.6913 25.2733 18.5303 25.2426 18.377V18.009C25.2426 17.8863 25.2349 17.7713 25.2196 17.664C25.2196 17.5567 25.2119 17.4493 25.1966 17.342C25.1813 17.204 25.1659 17.066 25.1506 16.928C25.1506 16.79 25.1429 16.652 25.1276 16.514C25.1123 16.4833 25.1046 16.4297 25.1046 16.353C25.0893 16.2763 25.0739 16.1997 25.0586 16.123C25.0586 16.031 25.0586 15.9467 25.0586 15.87L24.9896 14.72C24.9743 14.5973 24.9589 14.4823 24.9436 14.375C24.9436 14.2523 24.9436 14.1373 24.9436 14.03C24.9283 13.846 24.9129 13.662 24.8976 13.478C24.8823 13.294 24.8669 13.1177 24.8516 12.949C24.8516 12.9183 24.8439 12.8877 24.8286 12.857C24.8286 12.8263 24.8286 12.8033 24.8286 12.788C24.8286 12.604 24.8209 12.42 24.8056 12.236C24.7903 12.052 24.7749 11.8603 24.7596 11.661L24.6906 11.017C24.6446 10.7717 24.6369 10.5033 24.6676 10.212C24.6676 10.074 24.7213 9.959 24.8286 9.867C24.8593 9.83633 24.8823 9.821 24.8976 9.821C24.9129 9.80567 24.9283 9.79033 24.9436 9.775C25.0203 9.75967 25.0586 9.706 25.0586 9.614C25.0586 9.58333 25.0893 9.568 25.1506 9.568H25.2656C25.2809 9.568 25.2886 9.568 25.2886 9.568C25.3039 9.55267 25.3193 9.545 25.3346 9.545C25.3653 9.52967 25.3883 9.51433 25.4036 9.499C25.4343 9.46833 25.4573 9.453 25.4726 9.453C25.5033 9.453 25.5339 9.46067 25.5646 9.476C25.5953 9.476 25.6259 9.48367 25.6566 9.499C25.6873 9.499 25.7103 9.49133 25.7256 9.476C25.8023 9.46067 25.8789 9.46833 25.9556 9.499C26.0476 9.51433 26.1243 9.53733 26.1856 9.568C26.2776 9.58333 26.3466 9.64467 26.3926 9.752C26.4386 9.89 26.4769 10.028 26.5076 10.166C26.5536 10.2887 26.5843 10.419 26.5996 10.557V10.741C26.6303 10.8483 26.6456 10.9633 26.6456 11.086C26.6456 11.1933 26.6456 11.3083 26.6456 11.431C26.6456 11.5383 26.6456 11.6457 26.6456 11.753C26.6609 11.845 26.6763 11.937 26.6916 12.029C26.6916 12.075 26.6916 12.121 26.6916 12.167C26.6916 12.213 26.6993 12.259 26.7146 12.305C26.7146 12.397 26.7146 12.489 26.7146 12.581C26.7299 12.673 26.7453 12.7727 26.7606 12.88C26.7759 13.0487 26.7913 13.225 26.8066 13.409C26.8219 13.593 26.8296 13.777 26.8296 13.961C26.8296 14.0377 26.8296 14.122 26.8296 14.214C26.8296 14.2907 26.8373 14.3673 26.8526 14.444C26.8679 14.49 26.8756 14.536 26.8756 14.582C26.8756 14.628 26.8756 14.674 26.8756 14.72V15.18C26.8756 15.272 26.8833 15.3487 26.8986 15.41C26.9293 15.5173 26.9369 15.6247 26.9216 15.732C26.9216 15.824 26.9293 15.9237 26.9446 16.031L27.0136 17.089C27.0289 17.2423 27.0366 17.4033 27.0366 17.572C27.0519 17.7253 27.0596 17.8863 27.0596 18.055C27.0596 18.1163 27.0596 18.1853 27.0596 18.262C27.0596 18.3233 27.0673 18.3847 27.0826 18.446C27.0979 18.492 27.1056 18.538 27.1056 18.584C27.1056 18.63 27.1056 18.676 27.1056 18.722C27.1209 18.7373 27.1209 18.768 27.1056 18.814C27.1056 18.8447 27.1133 18.8753 27.1286 18.906C27.1593 19.0133 27.1746 19.1207 27.1746 19.228C27.1746 19.3353 27.1746 19.4503 27.1746 19.573C27.1746 19.6343 27.1746 19.7033 27.1746 19.78C27.1899 19.8413 27.1976 19.9103 27.1976 19.987C27.2129 20.0637 27.2206 20.148 27.2206 20.24C27.2206 20.332 27.2206 20.4163 27.2206 20.493C27.2359 20.5697 27.2436 20.654 27.2436 20.746C27.2436 20.8227 27.2513 20.8993 27.2666 20.976C27.2819 21.0067 27.2896 21.0373 27.2896 21.068C27.2896 21.2367 27.3049 21.4053 27.3356 21.574C27.3663 21.7427 27.3969 21.9113 27.4276 22.08C27.4429 22.126 27.4506 22.1797 27.4506 22.241C27.4506 22.287 27.4506 22.333 27.4506 22.379C27.4506 22.425 27.4353 22.4633 27.4046 22.494C27.3433 22.54 27.2973 22.632 27.2666 22.77C27.2666 22.816 27.2436 22.8543 27.1976 22.885C27.0903 22.931 26.9983 22.9923 26.9216 23.069C26.7989 23.1763 26.6533 23.23 26.4846 23.23Z" fill="#9DCC38"/>
<path d="M32.123 23.322C32.0157 23.322 31.8854 23.2837 31.732 23.207C31.6554 23.161 31.594 23.0997 31.548 23.023C31.5327 22.977 31.4944 22.977 31.433 23.023C31.387 23.0537 31.3487 23.0537 31.318 23.023C31.272 22.977 31.226 22.9463 31.18 22.931C31.1187 22.931 31.088 22.908 31.088 22.862C31.088 22.816 31.0804 22.7777 31.065 22.747C31.065 22.701 31.0497 22.6627 31.019 22.632C30.927 22.6013 30.8657 22.5247 30.835 22.402C30.8197 22.356 30.8044 22.3177 30.789 22.287C30.7737 22.241 30.7507 22.195 30.72 22.149C30.6894 22.0877 30.674 22.034 30.674 21.988C30.6587 21.942 30.6434 21.9037 30.628 21.873C30.628 21.827 30.6127 21.781 30.582 21.735C30.5667 21.6277 30.536 21.528 30.49 21.436C30.444 21.344 30.4057 21.2443 30.375 21.137C30.3444 21.0757 30.329 20.9913 30.329 20.884C30.329 20.608 30.375 20.355 30.467 20.125C30.5437 19.987 30.5667 19.849 30.536 19.711C30.5207 19.6497 30.5207 19.5883 30.536 19.527C30.5667 19.4657 30.5744 19.4043 30.559 19.343C30.5437 19.2817 30.5284 19.228 30.513 19.182C30.513 19.136 30.513 19.0823 30.513 19.021C30.4977 18.9903 30.49 18.952 30.49 18.906C30.49 18.814 30.49 18.722 30.49 18.63C30.49 18.5227 30.4747 18.4153 30.444 18.308C30.4287 18.262 30.421 18.193 30.421 18.101V17.25C30.4057 17.0507 30.3827 16.8513 30.352 16.652C30.3214 16.4527 30.283 16.2533 30.237 16.054C30.237 16.008 30.2294 15.962 30.214 15.916C30.214 15.87 30.214 15.824 30.214 15.778C30.214 15.4407 30.1604 15.111 30.053 14.789V14.582C30.0837 14.4133 30.0684 14.283 30.007 14.191C29.9917 14.1297 29.984 14.0453 29.984 13.938V13.915C29.984 13.7617 29.9764 13.6083 29.961 13.455C29.961 13.3017 29.9687 13.1483 29.984 12.995C30.0147 12.719 30.0147 12.4277 29.984 12.121C29.984 11.9983 29.984 11.8757 29.984 11.753C29.984 11.6303 29.9764 11.5153 29.961 11.408V11.27C29.9917 11.1933 30.007 11.1243 30.007 11.063C30.007 11.0017 30.007 10.9403 30.007 10.879C30.007 10.695 29.9994 10.5187 29.984 10.35C29.984 10.166 29.9687 9.98967 29.938 9.821C29.938 9.775 29.938 9.729 29.938 9.683C29.938 9.62167 29.9304 9.568 29.915 9.522C29.915 9.41467 29.8767 9.32267 29.8 9.246L29.639 9.108C29.4857 9.016 29.386 8.87033 29.34 8.671C29.3247 8.64033 29.317 8.61733 29.317 8.602C29.317 8.57133 29.3094 8.54067 29.294 8.51C29.2634 8.43333 29.2787 8.36433 29.34 8.303C29.386 8.24167 29.4167 8.18033 29.432 8.119C29.432 8.073 29.4397 8.03467 29.455 8.004C29.4857 7.958 29.5087 7.912 29.524 7.866C29.5394 7.82 29.5547 7.76633 29.57 7.705C29.6007 7.659 29.6237 7.64367 29.639 7.659C29.7464 7.659 29.823 7.64367 29.869 7.613C29.9764 7.53633 30.0914 7.521 30.214 7.567C30.2447 7.58233 30.2907 7.57467 30.352 7.544C30.3674 7.544 30.375 7.53633 30.375 7.521C30.4517 7.44433 30.536 7.406 30.628 7.406C30.72 7.39067 30.8197 7.39067 30.927 7.406C30.9424 7.406 30.9577 7.41367 30.973 7.429C30.9884 7.429 31.0037 7.429 31.019 7.429C31.1417 7.45967 31.2567 7.49033 31.364 7.521C31.4867 7.53633 31.6017 7.53633 31.709 7.521C31.7857 7.521 31.8624 7.52867 31.939 7.544C32.031 7.55933 32.1154 7.567 32.192 7.567C32.2534 7.567 32.307 7.57467 32.353 7.59C32.4144 7.60533 32.468 7.62067 32.514 7.636C32.5754 7.65133 32.629 7.67433 32.675 7.705C32.721 7.72033 32.7747 7.728 32.836 7.728C32.9127 7.74333 32.974 7.75867 33.02 7.774C33.0814 7.78933 33.1427 7.81233 33.204 7.843C33.4034 7.95033 33.6027 8.05 33.802 8.142C33.894 8.188 33.9784 8.24933 34.055 8.326C34.1624 8.40267 34.2544 8.44867 34.331 8.464C34.3464 8.464 34.3617 8.47167 34.377 8.487C34.3924 8.487 34.4077 8.487 34.423 8.487C34.4384 8.50233 34.4537 8.51 34.469 8.51C34.4844 8.51 34.4997 8.51767 34.515 8.533C34.5917 8.60967 34.6837 8.671 34.791 8.717C34.9137 8.74767 35.0134 8.80133 35.09 8.878C35.1207 8.90867 35.1667 8.93933 35.228 8.97C35.3507 9.016 35.458 9.085 35.55 9.177C35.5807 9.20767 35.6037 9.223 35.619 9.223C35.6804 9.223 35.7494 9.26133 35.826 9.338L36.309 9.844C36.3704 9.90533 36.4164 9.959 36.447 10.005C36.5237 10.1123 36.608 10.212 36.7 10.304C36.792 10.396 36.884 10.488 36.976 10.58C37.0067 10.6107 37.0374 10.649 37.068 10.695C37.114 10.7257 37.1447 10.764 37.16 10.81C37.1754 10.8407 37.1984 10.8713 37.229 10.902C37.2597 10.9173 37.2827 10.9403 37.298 10.971C37.4667 11.155 37.6277 11.3467 37.781 11.546C37.9497 11.7453 38.103 11.9523 38.241 12.167C38.3177 12.2743 38.3867 12.3893 38.448 12.512C38.5094 12.6347 38.563 12.7573 38.609 12.88C38.655 12.9873 38.701 13.0947 38.747 13.202C38.8084 13.3093 38.862 13.4167 38.908 13.524C38.954 13.6927 39.0077 13.846 39.069 13.984C39.1304 14.1833 39.1917 14.375 39.253 14.559C39.3144 14.743 39.368 14.9423 39.414 15.157L39.483 15.456C39.483 15.5787 39.483 15.709 39.483 15.847C39.4984 15.9697 39.506 16.1 39.506 16.238C39.506 16.2993 39.4984 16.353 39.483 16.399C39.483 16.445 39.4677 16.4987 39.437 16.56C39.4064 16.652 39.391 16.7363 39.391 16.813C39.3757 16.9663 39.3374 17.112 39.276 17.25C39.23 17.388 39.1764 17.5183 39.115 17.641C38.977 17.8863 38.8544 18.1317 38.747 18.377C38.7164 18.4383 38.6857 18.4997 38.655 18.561C38.6397 18.607 38.6167 18.6607 38.586 18.722L38.448 18.998C38.3407 19.2127 38.2104 19.4273 38.057 19.642C37.919 19.8413 37.7657 20.033 37.597 20.217C37.5357 20.2937 37.459 20.3703 37.367 20.447C37.2904 20.5083 37.2137 20.5773 37.137 20.654C36.9837 20.792 36.8304 20.93 36.677 21.068C36.5237 21.1907 36.3627 21.3133 36.194 21.436C36.0407 21.5433 35.8797 21.643 35.711 21.735C35.5577 21.827 35.389 21.9037 35.205 21.965C35.113 21.9803 35.021 22.0263 34.929 22.103C34.837 22.1643 34.7374 22.2257 34.63 22.287C34.538 22.3483 34.4384 22.4173 34.331 22.494C34.285 22.5093 34.239 22.5323 34.193 22.563C34.147 22.5783 34.0934 22.5937 34.032 22.609C33.986 22.6243 33.9324 22.6397 33.871 22.655C33.825 22.6703 33.779 22.6857 33.733 22.701C33.6717 22.7163 33.6104 22.7393 33.549 22.77C33.503 22.8007 33.457 22.839 33.411 22.885C33.3037 22.9617 33.1887 23.023 33.066 23.069C32.9434 23.1303 32.8207 23.1993 32.698 23.276C32.6674 23.2913 32.6137 23.299 32.537 23.299C32.491 23.3143 32.445 23.3143 32.399 23.299C32.353 23.299 32.307 23.299 32.261 23.299V23.322H32.123ZM33.043 20.746C33.1964 20.746 33.3267 20.7153 33.434 20.654C33.5567 20.608 33.6717 20.5543 33.779 20.493C33.8864 20.4317 33.986 20.3627 34.078 20.286L34.354 20.01C34.5074 19.8873 34.6454 19.757 34.768 19.619C34.906 19.481 35.0517 19.3583 35.205 19.251C35.2357 19.2203 35.251 19.205 35.251 19.205C35.3124 19.1437 35.366 19.09 35.412 19.044C35.4734 18.9827 35.527 18.9213 35.573 18.86C35.6037 18.8293 35.642 18.791 35.688 18.745C35.734 18.699 35.7647 18.6607 35.78 18.63C35.8414 18.5227 35.9257 18.4307 36.033 18.354C36.1097 18.308 36.1557 18.262 36.171 18.216C36.2017 18.1393 36.24 18.0627 36.286 17.986C36.3474 17.9093 36.4087 17.8403 36.47 17.779C36.5467 17.687 36.6234 17.549 36.7 17.365L36.792 17.135C36.884 16.9203 36.93 16.721 36.93 16.537C36.9454 16.491 36.953 16.422 36.953 16.33C36.9684 16.1 36.953 15.8547 36.907 15.594C36.8917 15.5173 36.8764 15.4407 36.861 15.364C36.8457 15.2873 36.838 15.2183 36.838 15.157C36.8227 15.0957 36.8074 15.042 36.792 14.996C36.792 14.9347 36.7767 14.881 36.746 14.835C36.7154 14.7737 36.6924 14.7123 36.677 14.651C36.6617 14.5897 36.6464 14.5283 36.631 14.467C36.631 14.3597 36.6157 14.2677 36.585 14.191C36.5544 14.099 36.5237 14.007 36.493 13.915C36.447 13.823 36.401 13.731 36.355 13.639C36.309 13.5317 36.2707 13.4243 36.24 13.317L36.217 13.225C36.171 13.1637 36.1327 13.1023 36.102 13.041C36.0867 12.9643 36.0637 12.8953 36.033 12.834C35.9717 12.696 35.9104 12.558 35.849 12.42C35.803 12.282 35.7417 12.1517 35.665 12.029C35.5884 11.891 35.504 11.753 35.412 11.615C35.3354 11.477 35.2357 11.3543 35.113 11.247C34.7604 10.8637 34.354 10.5187 33.894 10.212C33.618 10.0127 33.342 9.88233 33.066 9.821C32.9587 9.79033 32.836 9.76733 32.698 9.752C32.56 9.72133 32.4297 9.69833 32.307 9.683C32.261 9.683 32.2227 9.69833 32.192 9.729C32.1154 9.79033 32.077 9.867 32.077 9.959C32.077 10.0663 32.0694 10.1813 32.054 10.304C32.054 10.4113 32.054 10.5263 32.054 10.649C32.0847 10.8637 32.077 11.04 32.031 11.178C32.0157 11.2393 32.0004 11.3007 31.985 11.362C31.985 11.4233 31.9927 11.4923 32.008 11.569C32.0387 11.661 32.031 11.7453 31.985 11.822C31.939 11.914 31.939 12.0137 31.985 12.121C32.0464 12.2437 32.0617 12.397 32.031 12.581C31.985 12.765 31.985 12.949 32.031 13.133C32.0464 13.1943 32.054 13.2557 32.054 13.317C32.0694 13.3783 32.0694 13.4473 32.054 13.524C32.054 13.6927 32.0617 13.8613 32.077 14.03C32.1077 14.1987 32.1307 14.3673 32.146 14.536C32.146 14.5667 32.1614 14.6127 32.192 14.674V15.042C32.192 15.0727 32.1844 15.111 32.169 15.157C32.169 15.1877 32.1767 15.2183 32.192 15.249C32.2227 15.3717 32.2457 15.502 32.261 15.64C32.2917 15.7627 32.3224 15.8853 32.353 16.008C32.353 16.0387 32.3607 16.077 32.376 16.123C32.3914 16.1537 32.399 16.192 32.399 16.238C32.399 16.3453 32.4067 16.4527 32.422 16.56C32.4374 16.6673 32.4527 16.7823 32.468 16.905C32.514 17.3343 32.583 17.7713 32.675 18.216C32.721 18.4 32.744 18.5917 32.744 18.791C32.744 18.837 32.744 18.8907 32.744 18.952C32.744 18.998 32.7517 19.044 32.767 19.09C32.7977 19.1973 32.813 19.3047 32.813 19.412C32.813 19.5193 32.813 19.6267 32.813 19.734C32.813 19.7647 32.8054 19.803 32.79 19.849C32.79 19.895 32.7977 19.9333 32.813 19.964C32.8437 20.0407 32.859 20.1173 32.859 20.194C32.859 20.2553 32.859 20.3243 32.859 20.401C32.859 20.4623 32.8744 20.539 32.905 20.631C32.905 20.7077 32.951 20.746 33.043 20.746Z" fill="#EF5C53"/>
<path d="M45.5185 24.127L45.1275 24.058C44.9282 24.0273 44.7212 23.9967 44.5065 23.966C44.3072 23.9353 44.1002 23.9123 43.8855 23.897C43.6709 23.897 43.4562 23.8357 43.2415 23.713C43.0422 23.6057 42.9042 23.437 42.8275 23.207C42.8122 23.1303 42.7892 23.0537 42.7585 22.977C42.7432 22.9003 42.7279 22.8237 42.7125 22.747C42.7125 22.563 42.7509 22.425 42.8275 22.333C42.9042 22.2563 42.9655 22.1797 43.0115 22.103C43.0729 22.0263 43.1342 21.9573 43.1955 21.896C43.2262 21.8653 43.2569 21.8423 43.2875 21.827C43.3182 21.8117 43.3489 21.7963 43.3795 21.781C43.4562 21.735 43.5329 21.7043 43.6095 21.689C43.6862 21.6583 43.7629 21.6353 43.8395 21.62C43.8702 21.6047 43.8932 21.6047 43.9085 21.62C43.9392 21.62 43.9622 21.62 43.9775 21.62C44.0542 21.6353 44.1385 21.6507 44.2305 21.666C44.3225 21.666 44.4069 21.6813 44.4835 21.712L45.4495 21.85C45.6642 21.8807 45.8559 21.85 46.0245 21.758C46.0859 21.7273 46.1395 21.6967 46.1855 21.666C46.2469 21.6353 46.3005 21.6047 46.3465 21.574C46.6839 21.3747 46.9752 21.1677 47.2205 20.953C47.4045 20.7843 47.5809 20.6157 47.7495 20.447C47.9182 20.2783 48.0715 20.0943 48.2095 19.895C48.3169 19.757 48.3859 19.619 48.4165 19.481C48.4472 19.3277 48.4549 19.1743 48.4395 19.021L48.3705 18.837C48.3552 18.7603 48.3245 18.699 48.2785 18.653C48.2325 18.607 48.1865 18.5533 48.1405 18.492C48.0485 18.4153 47.9565 18.331 47.8645 18.239C47.7879 18.147 47.7035 18.0703 47.6115 18.009C47.3815 17.825 47.1515 17.6487 46.9215 17.48C46.7069 17.3113 46.4845 17.1427 46.2545 16.974C46.2392 16.9433 46.1932 16.9127 46.1165 16.882C45.9785 16.79 45.8405 16.6903 45.7025 16.583C45.5799 16.4603 45.4572 16.3453 45.3345 16.238C45.1812 16.0847 45.0125 15.939 44.8285 15.801C44.7365 15.755 44.6522 15.6783 44.5755 15.571C44.5142 15.4943 44.4222 15.4177 44.2995 15.341C44.1922 15.2797 44.0925 15.2107 44.0005 15.134C43.9085 15.042 43.8165 14.9577 43.7245 14.881L43.4255 14.605C43.3642 14.5283 43.2952 14.4593 43.2185 14.398C43.1572 14.3213 43.0882 14.2447 43.0115 14.168C42.9809 14.0913 42.9349 14.03 42.8735 13.984C42.8275 13.938 42.7815 13.8843 42.7355 13.823C42.7202 13.7923 42.6972 13.7617 42.6665 13.731C42.6359 13.685 42.6129 13.639 42.5975 13.593C42.5055 13.409 42.4059 13.225 42.2985 13.041C42.2065 12.857 42.1222 12.6653 42.0455 12.466C41.9995 12.3433 41.9535 12.2283 41.9075 12.121C41.8769 11.9983 41.8462 11.8833 41.8155 11.776C41.8002 11.6533 41.7695 11.546 41.7235 11.454C41.6929 11.3467 41.6622 11.2393 41.6315 11.132C41.6009 10.9633 41.5625 10.8023 41.5165 10.649C41.4859 10.4803 41.4552 10.3193 41.4245 10.166L41.3785 9.982C41.3632 9.81333 41.3632 9.65233 41.3785 9.499C41.4092 9.28433 41.4552 9.09267 41.5165 8.924C41.5779 8.74 41.6775 8.59433 41.8155 8.487C41.9689 8.36433 42.1222 8.24167 42.2755 8.119C42.4289 7.99633 42.5899 7.89667 42.7585 7.82C42.7892 7.82 42.8122 7.81233 42.8275 7.797C42.9809 7.67433 43.1495 7.59 43.3335 7.544C43.5175 7.48267 43.7015 7.429 43.8855 7.383C44.6215 7.16833 45.3805 7.00733 46.1625 6.9H46.3925C46.5459 6.9 46.6915 6.9 46.8295 6.9C46.9675 6.9 47.1132 6.89233 47.2665 6.877C47.4505 6.877 47.6345 6.9 47.8185 6.946C48.0025 6.97667 48.1789 7.03033 48.3475 7.107C48.4702 7.16833 48.5929 7.23733 48.7155 7.314C48.8382 7.37533 48.9532 7.44433 49.0605 7.521C49.1832 7.613 49.2599 7.71267 49.2905 7.82L49.3595 7.981C49.4362 8.119 49.4745 8.26467 49.4745 8.418C49.4899 8.556 49.4822 8.70167 49.4515 8.855C49.4515 8.901 49.4439 8.95467 49.4285 9.016C49.4285 9.062 49.4285 9.108 49.4285 9.154C49.3825 9.49133 49.2215 9.752 48.9455 9.936C48.7769 10.0893 48.5545 10.1507 48.2785 10.12C48.2172 10.0893 48.1865 10.1047 48.1865 10.166C48.1865 10.2273 48.1482 10.258 48.0715 10.258H47.9335C47.8415 10.258 47.7495 10.212 47.6575 10.12C47.5809 10.0433 47.5425 9.982 47.5425 9.936C47.5425 9.87467 47.5732 9.82867 47.6345 9.798C47.6039 9.72133 47.5732 9.65233 47.5425 9.591C47.5119 9.52967 47.4812 9.48367 47.4505 9.453C47.4045 9.37633 47.3355 9.32267 47.2435 9.292C47.1669 9.27667 47.0902 9.26133 47.0135 9.246C46.9369 9.23067 46.8602 9.21533 46.7835 9.2C46.7222 9.2 46.6532 9.2 46.5765 9.2C46.4999 9.18467 46.4232 9.16933 46.3465 9.154C46.3005 9.13867 46.2315 9.14633 46.1395 9.177C46.0935 9.19233 46.0475 9.20767 46.0015 9.223C45.9555 9.223 45.9019 9.21533 45.8405 9.2C45.7945 9.2 45.7409 9.2 45.6795 9.2C45.6335 9.2 45.5799 9.21533 45.5185 9.246L45.0815 9.315C44.8362 9.361 44.5985 9.453 44.3685 9.591C44.3225 9.60633 44.2765 9.62167 44.2305 9.637C44.1845 9.65233 44.1385 9.65233 44.0925 9.637C44.0005 9.62167 43.9239 9.64467 43.8625 9.706C43.8472 9.73667 43.8089 9.75967 43.7475 9.775C43.7015 9.775 43.6632 9.79033 43.6325 9.821C43.5712 9.88233 43.5405 9.94367 43.5405 10.005C43.5559 10.0357 43.5635 10.0817 43.5635 10.143L44.0465 11.546C44.1385 11.7913 44.2535 12.0213 44.3915 12.236C44.5449 12.4353 44.7059 12.6347 44.8745 12.834C45.1352 13.1407 45.4035 13.4013 45.6795 13.616L46.4155 14.237C46.5689 14.375 46.7299 14.5053 46.8985 14.628C47.0672 14.7507 47.2282 14.8733 47.3815 14.996C47.6115 15.1647 47.8415 15.341 48.0715 15.525C48.3015 15.6937 48.5315 15.87 48.7615 16.054C48.9455 16.2073 49.1219 16.3607 49.2905 16.514C49.4745 16.652 49.6432 16.8053 49.7965 16.974C49.9039 17.0967 50.0112 17.2193 50.1185 17.342C50.2259 17.4647 50.3179 17.6027 50.3945 17.756C50.5019 17.9247 50.5939 18.124 50.6705 18.354C50.7625 18.6453 50.8009 18.9213 50.7855 19.182C50.7702 19.2127 50.7625 19.2587 50.7625 19.32C50.7625 19.504 50.7395 19.6803 50.6935 19.849C50.6629 20.0023 50.6092 20.1633 50.5325 20.332C50.4559 20.4853 50.3715 20.6463 50.2795 20.815C50.2029 20.9683 50.1109 21.1217 50.0035 21.275C49.8502 21.4743 49.6892 21.666 49.5205 21.85C49.3672 22.0187 49.1909 22.1873 48.9915 22.356C48.8842 22.448 48.7769 22.5477 48.6695 22.655C48.5622 22.747 48.4472 22.8313 48.3245 22.908C48.2479 22.9693 48.1712 23.023 48.0945 23.069C48.0179 23.1303 47.9412 23.1917 47.8645 23.253C47.8032 23.2837 47.7419 23.322 47.6805 23.368C47.6192 23.414 47.5579 23.46 47.4965 23.506C47.4352 23.5673 47.3585 23.6133 47.2665 23.644C47.1899 23.69 47.1132 23.7283 47.0365 23.759L46.3695 24.035C46.2315 24.081 46.0935 24.1117 45.9555 24.127C45.8175 24.1423 45.6719 24.1423 45.5185 24.127Z" fill="#63C7FD"/>
</svg>
