<svg width="178" height="81" viewBox="0 0 178 81" fill="none" xmlns="http://www.w3.org/2000/svg">
<path d="M6.24 79.44C6.24 79.8133 6.02667 80 5.6 80H0.96C0.586667 80 0.4 79.8133 0.4 79.44V26.8C0.4 26.3733 0.586667 26.16 0.96 26.16H5.6C6.02667 26.16 6.24 26.3733 6.24 26.8V79.44ZM18.5938 80C18.1671 80 17.9538 79.7867 17.9538 79.36C17.9538 73.7067 17.9538 68.0533 17.9538 62.4C17.9538 56.7467 17.9538 51.0667 17.9538 45.36C17.9538 45.04 18.0604 44.7733 18.2738 44.56C18.4871 44.2933 18.9671 44.0267 19.7138 43.76C20.4071 43.5467 21.4204 43.3067 22.7538 43.04C24.1404 42.72 25.6071 42.4267 27.1538 42.16C28.7538 41.8933 30.2204 41.76 31.5538 41.76C35.6604 41.76 38.8071 42.56 40.9938 44.16C43.2338 45.76 44.7804 47.9467 45.6338 50.72C46.4871 53.44 46.9138 56.4533 46.9138 59.76C46.9138 62.2133 46.8604 64.6933 46.7538 67.2C46.6471 69.6533 46.5138 71.92 46.3538 74C46.2471 76.08 46.1404 77.7333 46.0338 78.96C45.9804 79.44 45.8738 79.7333 45.7138 79.84C45.6071 79.9467 45.3138 80 44.8338 80H41.3938C40.9671 80 40.6738 79.9467 40.5138 79.84C40.3538 79.68 40.3004 79.4133 40.3538 79.04C40.3538 78.72 40.3804 77.8667 40.4338 76.48C40.5404 75.0933 40.6471 73.44 40.7538 71.52C40.8604 69.5467 40.9404 67.52 40.9938 65.44C41.1004 63.3067 41.1538 61.36 41.1538 59.6C41.1538 56.72 40.8071 54.32 40.1138 52.4C39.4204 50.48 38.3538 49.04 36.9138 48.08C35.5271 47.12 33.7138 46.64 31.4738 46.64C30.3004 46.64 29.1538 46.7467 28.0338 46.96C26.9138 47.1733 25.9004 47.44 24.9938 47.76C24.6738 47.8133 24.3538 48 24.0338 48.32C23.7671 48.5867 23.6338 49.0667 23.6338 49.76C23.6338 52.7467 23.6338 55.8933 23.6338 59.2C23.6338 62.5067 23.6338 65.8667 23.6338 69.28C23.6338 72.64 23.6338 76 23.6338 79.36C23.6338 79.7867 23.4471 80 23.0738 80H18.5938ZM65.74 80C65.3667 80 65.1 79.84 64.94 79.52C63.66 77.28 62.5133 74.9067 61.5 72.4C60.4867 69.84 59.5267 67.3067 58.62 64.8C57.18 60.5333 56.0067 56.5867 55.1 52.96C54.1933 49.3333 53.5533 46.1867 53.18 43.52C53.02 42.6667 53.18 42.24 53.66 42.24H58.3C58.5133 42.24 58.7 42.32 58.86 42.48C59.02 42.5867 59.1267 42.7733 59.18 43.04C59.3933 44.8533 59.7667 47.0133 60.3 49.52C60.8867 51.9733 61.5533 54.6133 62.3 57.44C63.1533 60.5867 64.0333 63.4667 64.94 66.08C65.8467 68.6933 66.6733 70.72 67.42 72.16C67.5267 72.48 67.66 72.6133 67.82 72.56C68.0333 72.5067 68.1933 72.3733 68.3 72.16C68.94 70.9867 69.6333 69.3067 70.38 67.12C71.18 64.88 71.98 62.3467 72.78 59.52C73.58 56.4267 74.3 53.36 74.94 50.32C75.6333 47.2267 76.0867 44.72 76.3 42.8C76.3533 42.4267 76.54 42.24 76.86 42.24H81.66C81.98 42.24 82.1133 42.4267 82.06 42.8C81.6333 45.68 80.9933 48.96 80.14 52.64C79.2867 56.32 78.1667 60.16 76.78 64.16C75.98 66.72 75.02 69.3067 73.9 71.92C72.8333 74.48 71.66 77.0133 70.38 79.52C70.22 79.84 69.98 80 69.66 80H65.74ZM86.8875 61.04C86.8875 58.5333 87.1275 56.1333 87.6075 53.84C88.1408 51.5467 88.9942 49.4933 90.1675 47.68C91.3408 45.8133 92.9408 44.3733 94.9675 43.36C97.0475 42.2933 99.6875 41.76 102.888 41.76C106.141 41.76 108.754 42.24 110.728 43.2C112.701 44.16 114.168 45.44 115.128 47.04C116.141 48.64 116.808 50.4 117.128 52.32C117.501 54.24 117.688 56.16 117.688 58.08C117.688 60.0533 117.474 61.28 117.048 61.76C116.674 62.24 116.088 62.48 115.288 62.48H93.4475C93.2875 62.48 93.1008 62.5333 92.8875 62.64C92.7275 62.7467 92.6475 63.04 92.6475 63.52C92.6475 65.9733 93.0475 68.16 93.8475 70.08C94.6475 71.9467 95.8742 73.4133 97.5275 74.48C99.2342 75.5467 101.368 76.08 103.928 76.08C105.688 76.08 107.528 75.8667 109.448 75.44C111.368 74.96 112.968 74.4 114.248 73.76C114.674 73.4933 115.021 73.3333 115.288 73.28C115.554 73.2267 115.794 73.44 116.008 73.92L117.048 75.92C117.208 76.24 117.234 76.48 117.128 76.64C117.074 76.7467 116.888 76.9067 116.568 77.12C114.861 78.24 112.781 79.0933 110.328 79.68C107.928 80.2133 105.474 80.48 102.968 80.48C99.6608 80.48 96.9675 80 94.8875 79.04C92.8075 78.0267 91.1808 76.64 90.0075 74.88C88.8342 73.0667 88.0075 70.9867 87.5275 68.64C87.1008 66.2933 86.8875 63.76 86.8875 61.04ZM111.848 57.12C111.848 55.2 111.608 53.44 111.128 51.84C110.648 50.1867 109.741 48.8533 108.408 47.84C107.128 46.8267 105.234 46.32 102.728 46.32C100.914 46.32 99.3675 46.6667 98.0875 47.36C96.8075 48.0533 95.7942 48.96 95.0475 50.08C94.3008 51.1467 93.7408 52.3467 93.3675 53.68C92.9942 54.96 92.7542 56.1867 92.6475 57.36C92.6475 57.8933 92.6742 58.2667 92.7275 58.48C92.8342 58.64 93.1008 58.72 93.5275 58.72H110.488C111.021 58.72 111.394 58.64 111.608 58.48C111.821 58.32 111.901 57.8667 111.848 57.12ZM123.764 73.36C123.818 73.0933 123.924 72.9867 124.084 73.04C124.298 73.04 124.511 73.12 124.724 73.28C125.578 73.8133 126.644 74.2667 127.924 74.64C129.204 75.0133 130.511 75.3067 131.844 75.52C133.178 75.7333 134.324 75.84 135.284 75.84C136.778 75.84 138.191 75.6 139.524 75.12C140.858 74.64 141.924 73.8933 142.724 72.88C143.578 71.8133 144.004 70.4533 144.004 68.8C144.004 66.8267 143.258 65.44 141.764 64.64C140.324 63.7867 137.978 63.1467 134.724 62.72C132.698 62.4533 130.804 62 129.044 61.36C127.338 60.6667 125.951 59.6533 124.884 58.32C123.871 56.9867 123.364 55.2 123.364 52.96C123.364 50.5067 124.004 48.48 125.284 46.88C126.564 45.2267 128.244 43.9733 130.324 43.12C132.404 42.2667 134.618 41.84 136.964 41.84C138.884 41.84 140.938 42.1067 143.124 42.64C145.311 43.1733 147.044 43.8933 148.324 44.8C148.591 44.9067 148.724 45.04 148.724 45.2C148.724 45.3067 148.698 45.4667 148.644 45.68L147.604 48.8C147.498 49.2267 147.178 49.28 146.644 48.96C145.631 48.2667 144.191 47.6533 142.324 47.12C140.511 46.5867 138.724 46.32 136.964 46.32C134.564 46.32 132.618 46.9333 131.124 48.16C129.631 49.3333 128.884 50.8 128.884 52.56C128.884 54.3733 129.631 55.68 131.124 56.48C132.671 57.28 134.778 57.84 137.444 58.16C139.204 58.3733 140.804 58.6933 142.244 59.12C143.684 59.4933 144.938 60.0533 146.004 60.8C147.071 61.4933 147.898 62.4533 148.484 63.68C149.071 64.9067 149.364 66.4533 149.364 68.32C149.364 70.6133 148.938 72.5333 148.084 74.08C147.231 75.6267 146.084 76.88 144.644 77.84C143.258 78.7467 141.711 79.4133 140.004 79.84C138.298 80.2133 136.618 80.4 134.964 80.4C134.164 80.4 133.044 80.2933 131.604 80.08C130.164 79.8667 128.698 79.5467 127.204 79.12C125.764 78.6933 124.564 78.16 123.604 77.52C123.391 77.4133 123.231 77.3067 123.124 77.2C123.071 77.0933 123.071 76.9333 123.124 76.72L123.764 73.36ZM169.729 80C166.422 80 163.969 79.3067 162.369 77.92C160.769 76.48 159.729 74.48 159.249 71.92C158.769 69.68 158.529 67.3333 158.529 64.88C158.529 62.3733 158.529 59.8133 158.529 57.2C158.529 55.3867 158.529 53.6533 158.529 52C158.582 50.3467 158.662 48.6667 158.769 46.96C158.769 46.48 158.555 46.24 158.129 46.24H154.049C153.835 46.24 153.675 46.1867 153.569 46.08C153.462 45.9733 153.409 45.8133 153.409 45.6V42.88C153.409 42.6667 153.462 42.5067 153.569 42.4C153.675 42.2933 153.862 42.24 154.129 42.24H158.209C158.475 42.24 158.662 42.1867 158.769 42.08C158.875 41.92 158.929 41.6533 158.929 41.28L159.329 34.48C159.329 34.1067 159.489 33.92 159.809 33.92H164.289C164.449 33.92 164.582 33.9733 164.689 34.08C164.849 34.1867 164.929 34.32 164.929 34.48L164.609 41.28C164.555 41.6533 164.555 41.92 164.609 42.08C164.715 42.1867 164.902 42.24 165.169 42.24H174.529C174.795 42.24 174.955 42.2933 175.009 42.4C175.115 42.4533 175.169 42.64 175.169 42.96V45.52C175.169 45.7333 175.115 45.92 175.009 46.08C174.902 46.1867 174.715 46.24 174.449 46.24H165.169C164.955 46.24 164.769 46.32 164.609 46.48C164.449 46.5867 164.369 46.8 164.369 47.12C164.315 48.8267 164.262 50.56 164.209 52.32C164.155 54.08 164.129 55.8667 164.129 57.68C164.129 59.8667 164.129 62.1067 164.129 64.4C164.182 66.64 164.449 68.8267 164.929 70.96C165.249 72.4533 165.835 73.5733 166.689 74.32C167.595 75.0667 168.982 75.44 170.849 75.44C171.595 75.44 172.342 75.36 173.089 75.2C173.835 74.9867 174.582 74.7733 175.329 74.56C175.702 74.3467 175.942 74.2667 176.049 74.32C176.155 74.3733 176.262 74.56 176.369 74.88L177.249 77.52C177.355 77.84 177.302 78.08 177.089 78.24C176.929 78.4 176.582 78.6133 176.049 78.88C175.462 79.0933 174.742 79.3067 173.889 79.52C173.089 79.68 172.315 79.8133 171.569 79.92C170.822 79.9733 170.209 80 169.729 80Z" fill="white"/>
<path d="M16.3 36.85C16.1 36.85 15.9167 36.7833 15.75 36.65C15.65 36.55 15.5333 36.4667 15.4 36.4C15.2667 36.3333 15.15 36.25 15.05 36.15C14.95 36.0833 14.85 36.0167 14.75 35.95C14.6833 35.85 14.6167 35.7667 14.55 35.7C14.4167 35.5 14.3 35.3 14.2 35.1C14.1333 34.8667 14.1167 34.6333 14.15 34.4C14.2167 34.0333 14.25 33.6833 14.25 33.35C14.2833 32.9833 14.3167 32.6333 14.35 32.3C14.3833 32.1333 14.4 31.9667 14.4 31.8C14.4333 31.6 14.45 31.4167 14.45 31.25C14.45 30.85 14.45 30.45 14.45 30.05C14.4833 29.65 14.5333 29.25 14.6 28.85V28.75C14.6333 27.7167 14.6667 26.7 14.7 25.7C14.7667 24.6667 14.8 23.6333 14.8 22.6C14.7667 21.8333 14.75 21.0667 14.75 20.3C14.75 19.5333 14.75 18.7833 14.75 18.05C14.75 17.6833 14.75 17.3333 14.75 17C14.7833 16.6667 14.7667 16.3333 14.7 16C14.6667 15.4333 14.6333 14.8833 14.6 14.35C14.6 13.8167 14.6 13.2833 14.6 12.75C14.6 12.65 14.5833 12.55 14.55 12.45C14.55 12.35 14.55 12.25 14.55 12.15C14.5167 12.0167 14.5 11.8833 14.5 11.75C14.5 11.5833 14.4833 11.4333 14.45 11.3C14.45 11.1333 14.4333 10.9667 14.4 10.8C14.4 10.6333 14.3833 10.4833 14.35 10.35V10C14.3167 9.63333 14.2833 9.3 14.25 9C14.2167 8.66667 14.1667 8.33333 14.1 8C14.0667 7.73333 14.0333 7.45 14 7.15C14 6.85 14 6.55 14 6.25C14 6.05 14.0667 5.9 14.2 5.8C14.2667 5.73333 14.3 5.65 14.3 5.55C14.3667 5.41667 14.4 5.3 14.4 5.2C14.5 4.93333 14.6333 4.76667 14.8 4.7C14.9 4.63333 14.9833 4.58333 15.05 4.55C15.15 4.48333 15.25 4.46666 15.35 4.5C15.5167 4.5 15.6167 4.45 15.65 4.35C15.7167 4.31667 15.7667 4.28333 15.8 4.25C15.8333 4.18333 15.8667 4.15 15.9 4.15C16.0667 4.15 16.2167 4.13333 16.35 4.1C16.5167 4.06666 16.6833 4.08333 16.85 4.15C17.05 4.21666 17.2167 4.25 17.35 4.25C17.5167 4.28333 17.6333 4.35 17.7 4.45C17.7667 4.51667 17.8333 4.55 17.9 4.55C18.0667 4.58333 18.1833 4.7 18.25 4.9C18.3167 4.96667 18.35 5.05 18.35 5.15C18.3833 5.21667 18.4167 5.26667 18.45 5.3C18.6167 5.46667 18.6667 5.66666 18.6 5.9C18.5333 6.26667 18.5333 6.63333 18.6 7C18.6333 7.1 18.6333 7.2 18.6 7.3C18.6 7.4 18.6167 7.5 18.65 7.6C18.65 7.83333 18.65 8.06666 18.65 8.3C18.6833 8.5 18.7167 8.73333 18.75 9C18.7833 9.13333 18.8 9.26667 18.8 9.4C18.8 9.5 18.8 9.63333 18.8 9.8C18.8 10.0333 18.8 10.3 18.8 10.6C18.8 10.8667 18.8167 11.1333 18.85 11.4C18.8833 11.4667 18.9 11.5833 18.9 11.75C18.9 11.9833 18.9 12.2167 18.9 12.45C18.9333 12.6833 18.9667 12.9167 19 13.15C19.1 13.65 19.15 14.1333 19.15 14.6C19.1167 14.8333 19.1167 15.0833 19.15 15.35C19.1833 15.6167 19.2 15.8833 19.2 16.15C19.2 16.2167 19.2333 16.25 19.3 16.25C19.3667 16.25 19.4167 16.2333 19.45 16.2C19.5167 16.1667 19.6167 16.0833 19.75 15.95L22.15 13.55C22.65 12.9833 23.2 12.4833 23.8 12.05C24.1 11.8167 24.3833 11.5833 24.65 11.35C24.9167 11.0833 25.1667 10.8167 25.4 10.55C25.7333 10.1833 26.05 9.81667 26.35 9.45C26.6833 9.08333 27.0167 8.71666 27.35 8.35C27.5167 8.18333 27.6667 8 27.8 7.8C27.9667 7.6 28.1167 7.4 28.25 7.2C28.45 6.96667 28.6333 6.75 28.8 6.55C29 6.31667 29.2167 6.1 29.45 5.9C29.55 5.83333 29.6333 5.76667 29.7 5.7C29.8 5.6 29.9167 5.53333 30.05 5.5C30.0833 5.5 30.1 5.5 30.1 5.5C30.1333 5.46667 30.15 5.45 30.15 5.45C30.4833 5.15 30.8167 5.1 31.15 5.3C31.25 5.36666 31.4 5.4 31.6 5.4C31.8667 5.4 32.1 5.5 32.3 5.7C32.3667 5.73333 32.4167 5.76667 32.45 5.8C32.5167 5.8 32.5667 5.81666 32.6 5.85H33.1C33.3 5.85 33.4 5.88333 33.4 5.95C33.4333 5.98333 33.4333 6.08333 33.4 6.25C33.3333 6.35 33.3667 6.45 33.5 6.55C33.6667 6.58333 33.7167 6.68333 33.65 6.85C33.6167 6.91667 33.65 7 33.75 7.1C33.85 7.16667 33.85 7.25 33.75 7.35C33.5833 7.61667 33.4833 7.88333 33.45 8.15C33.3833 8.31666 33.3 8.48333 33.2 8.65C33.1333 8.78333 33.0167 8.93333 32.85 9.1C32.45 9.43333 32.0833 9.81667 31.75 10.25C31.4167 10.65 31.0667 11.0667 30.7 11.5L30.4 11.8C30.0667 12.1 29.75 12.4167 29.45 12.75C29.1833 13.0833 28.9167 13.4167 28.65 13.75C28.2833 14.1833 27.8833 14.6167 27.45 15.05C27.05 15.45 26.65 15.85 26.25 16.25C26.05 16.45 25.9 16.5833 25.8 16.65C25.6333 16.7833 25.4667 16.9333 25.3 17.1C25.1333 17.2667 24.9667 17.45 24.8 17.65C24.7667 17.7167 24.7 17.7833 24.6 17.85C24.5333 17.9167 24.4667 17.9833 24.4 18.05C24.1667 18.2833 23.9333 18.5333 23.7 18.8C23.4667 19.0333 23.2167 19.2667 22.95 19.5C22.95 19.5333 22.9333 19.5667 22.9 19.6C22.9 19.6 22.9 19.6167 22.9 19.65C22.9 19.6833 22.8833 19.7167 22.85 19.75C22.85 19.7833 22.8667 19.8167 22.9 19.85C22.9333 19.95 23.0167 20.0667 23.15 20.2L24.6 21.55C24.9 21.7833 25.1833 22.05 25.45 22.35C25.7167 22.6167 25.9833 22.8833 26.25 23.15L26.75 23.75C26.8167 23.8167 26.8833 23.9 26.95 24C27.0167 24.0667 27.0833 24.1333 27.15 24.2C27.5167 24.5 27.8833 24.8 28.25 25.1C28.6167 25.4 28.9667 25.7 29.3 26L30.05 26.6C30.45 26.9333 30.8833 27.25 31.35 27.55C31.8167 27.85 32.2667 28.1333 32.7 28.4C32.9333 28.5333 33.15 28.6667 33.35 28.8C33.5833 28.9 33.8167 29 34.05 29.1C34.4833 29.3 34.8333 29.65 35.1 30.15C35.1333 30.1833 35.1667 30.25 35.2 30.35C35.2333 30.4167 35.2667 30.4833 35.3 30.55C35.4667 30.9167 35.5333 31.2667 35.5 31.6C35.5 31.8667 35.4667 32.05 35.4 32.15L35.25 32.55C35.2167 32.6833 35.15 32.8333 35.05 33C34.9833 33.1333 34.8667 33.25 34.7 33.35C34.6333 33.3833 34.5667 33.4667 34.5 33.6C34.3667 33.7333 34.25 33.8 34.15 33.8C33.9833 33.8333 33.8 33.8667 33.6 33.9C33.4333 33.9333 33.2667 33.9667 33.1 34C32.9667 34.0333 32.8333 34.05 32.7 34.05C32.5667 34.05 32.4333 34.0333 32.3 34C32.2667 33.9667 32.2167 33.95 32.15 33.95C32.0167 33.9167 31.8833 33.8833 31.75 33.85C31.65 33.8167 31.55 33.7833 31.45 33.75C31.35 33.6833 31.25 33.6167 31.15 33.55C31.0833 33.45 31.0167 33.3667 30.95 33.3C30.8833 33.2333 30.8 33.1667 30.7 33.1C30.6 33.0333 30.5 32.9833 30.4 32.95L29.65 32.5C29.6167 32.4333 29.55 32.3833 29.45 32.35C29.3833 32.2833 29.3167 32.2333 29.25 32.2C29.1167 32.1333 29.0333 32.0833 29 32.05C28.8667 31.8833 28.7 31.75 28.5 31.65C28.3333 31.55 28.1667 31.4333 28 31.3C27.7333 31.0667 27.45 30.85 27.15 30.65C26.8833 30.4167 26.6167 30.1833 26.35 29.95C25.7833 29.45 25.2167 28.95 24.65 28.45C24.1167 27.95 23.5833 27.4333 23.05 26.9C22.65 26.5 22.25 26.1 21.85 25.7C21.45 25.3 21.0167 24.9 20.55 24.5C20.4167 24.4 20.2833 24.3 20.15 24.2C20.05 24.1 19.9167 24 19.75 23.9C19.7167 23.8333 19.6667 23.8167 19.6 23.85C19.5667 23.8833 19.55 23.9333 19.55 24C19.5167 24.0333 19.5 24.1167 19.5 24.25V29.65C19.5 29.9833 19.5 30.3333 19.5 30.7C19.5 31.0333 19.4667 31.3833 19.4 31.75V32.5C19.3667 32.7333 19.35 32.9667 19.35 33.2C19.3833 33.4333 19.3833 33.6833 19.35 33.95V34.7C19.3167 34.8 19.2833 34.9 19.25 35C19.2167 35.1 19.1667 35.2 19.1 35.3C19 35.4 18.9167 35.5167 18.85 35.65C18.7833 35.75 18.7167 35.85 18.65 35.95C18.5833 36.0167 18.5167 36.05 18.45 36.05C18.3167 36.0833 18.1833 36.15 18.05 36.25C17.95 36.35 17.8167 36.4333 17.65 36.5C17.4167 36.7 17.1333 36.8 16.8 36.8C16.7333 36.7667 16.65 36.7667 16.55 36.8C16.4833 36.8333 16.4 36.85 16.3 36.85Z" fill="#FDD444"/>
<path d="M43.4883 36.5C43.2883 36.5 43.1549 36.4833 43.0883 36.45C42.9549 36.3833 42.8383 36.3333 42.7383 36.3C42.6383 36.2667 42.5383 36.2333 42.4383 36.2C42.3383 36.1333 42.2383 36.0667 42.1383 36C42.0716 35.9 42.0049 35.8 41.9383 35.7C41.8716 35.6333 41.8049 35.6 41.7383 35.6C41.5383 35.6 41.4383 35.5 41.4383 35.3C41.4049 35.1 41.3716 34.9 41.3383 34.7C41.3049 34.5 41.2716 34.3 41.2383 34.1C41.2049 33.8 41.1716 33.5 41.1383 33.2C41.1383 32.9 41.1049 32.6167 41.0383 32.35V31.9C41.0383 31.7667 41.0216 31.65 40.9883 31.55C40.9883 31.45 40.9883 31.3333 40.9883 31.2C40.9216 31.0333 40.9216 30.9 40.9883 30.8C41.0549 30.2 41.0549 29.6 40.9883 29C40.9549 28.8333 40.9383 28.6667 40.9383 28.5C40.9383 28.3333 40.9216 28.1667 40.8883 28C40.8883 27.6667 40.8883 27.3333 40.8883 27C40.8883 26.6333 40.8549 26.2833 40.7883 25.95V25.15C40.7883 24.8833 40.7716 24.6333 40.7383 24.4C40.7383 24.1667 40.7216 23.9333 40.6883 23.7C40.6549 23.4 40.6216 23.1 40.5883 22.8C40.5883 22.5 40.5716 22.2 40.5383 21.9C40.5049 21.8333 40.4883 21.7167 40.4883 21.55C40.4549 21.3833 40.4216 21.2167 40.3883 21.05C40.3883 20.85 40.3883 20.6667 40.3883 20.5L40.2383 18C40.2049 17.7333 40.1716 17.4833 40.1383 17.25C40.1383 16.9833 40.1383 16.7333 40.1383 16.5C40.1049 16.1 40.0716 15.7 40.0383 15.3C40.0049 14.9 39.9716 14.5167 39.9383 14.15C39.9383 14.0833 39.9216 14.0167 39.8883 13.95C39.8883 13.8833 39.8883 13.8333 39.8883 13.8C39.8883 13.4 39.8716 13 39.8383 12.6C39.8049 12.2 39.7716 11.7833 39.7383 11.35L39.5883 9.95C39.4883 9.41667 39.4716 8.83333 39.5383 8.2C39.5383 7.9 39.6549 7.65 39.8883 7.45C39.9549 7.38333 40.0049 7.35 40.0383 7.35C40.0716 7.31667 40.1049 7.28333 40.1383 7.25C40.3049 7.21666 40.3883 7.1 40.3883 6.9C40.3883 6.83333 40.4549 6.8 40.5883 6.8H40.8383C40.8716 6.8 40.8883 6.8 40.8883 6.8C40.9216 6.76666 40.9549 6.75 40.9883 6.75C41.0549 6.71667 41.1049 6.68333 41.1383 6.65C41.2049 6.58333 41.2549 6.55 41.2883 6.55C41.3549 6.55 41.4216 6.56667 41.4883 6.6C41.5549 6.6 41.6216 6.61667 41.6883 6.65C41.7549 6.65 41.8049 6.63333 41.8383 6.6C42.0049 6.56667 42.1716 6.58333 42.3383 6.65C42.5383 6.68333 42.7049 6.73333 42.8383 6.8C43.0383 6.83333 43.1883 6.96667 43.2883 7.2C43.3883 7.5 43.4716 7.8 43.5383 8.1C43.6383 8.36667 43.7049 8.65 43.7383 8.95V9.35C43.8049 9.58333 43.8383 9.83333 43.8383 10.1C43.8383 10.3333 43.8383 10.5833 43.8383 10.85C43.8383 11.0833 43.8383 11.3167 43.8383 11.55C43.8716 11.75 43.9049 11.95 43.9383 12.15C43.9383 12.25 43.9383 12.35 43.9383 12.45C43.9383 12.55 43.9549 12.65 43.9883 12.75C43.9883 12.95 43.9883 13.15 43.9883 13.35C44.0216 13.55 44.0549 13.7667 44.0883 14C44.1216 14.3667 44.1549 14.75 44.1883 15.15C44.2216 15.55 44.2383 15.95 44.2383 16.35C44.2383 16.5167 44.2383 16.7 44.2383 16.9C44.2383 17.0667 44.2549 17.2333 44.2883 17.4C44.3216 17.5 44.3383 17.6 44.3383 17.7C44.3383 17.8 44.3383 17.9 44.3383 18V19C44.3383 19.2 44.3549 19.3667 44.3883 19.5C44.4549 19.7333 44.4716 19.9667 44.4383 20.2C44.4383 20.4 44.4549 20.6167 44.4883 20.85L44.6383 23.15C44.6716 23.4833 44.6883 23.8333 44.6883 24.2C44.7216 24.5333 44.7383 24.8833 44.7383 25.25C44.7383 25.3833 44.7383 25.5333 44.7383 25.7C44.7383 25.8333 44.7549 25.9667 44.7883 26.1C44.8216 26.2 44.8383 26.3 44.8383 26.4C44.8383 26.5 44.8383 26.6 44.8383 26.7C44.8716 26.7333 44.8716 26.8 44.8383 26.9C44.8383 26.9667 44.8549 27.0333 44.8883 27.1C44.9549 27.3333 44.9883 27.5667 44.9883 27.8C44.9883 28.0333 44.9883 28.2833 44.9883 28.55C44.9883 28.6833 44.9883 28.8333 44.9883 29C45.0216 29.1333 45.0383 29.2833 45.0383 29.45C45.0716 29.6167 45.0883 29.8 45.0883 30C45.0883 30.2 45.0883 30.3833 45.0883 30.55C45.1216 30.7167 45.1383 30.9 45.1383 31.1C45.1383 31.2667 45.1549 31.4333 45.1883 31.6C45.2216 31.6667 45.2383 31.7333 45.2383 31.8C45.2383 32.1667 45.2716 32.5333 45.3383 32.9C45.4049 33.2667 45.4716 33.6333 45.5383 34C45.5716 34.1 45.5883 34.2167 45.5883 34.35C45.5883 34.45 45.5883 34.55 45.5883 34.65C45.5883 34.75 45.5549 34.8333 45.4883 34.9C45.3549 35 45.2549 35.2 45.1883 35.5C45.1883 35.6 45.1383 35.6833 45.0383 35.75C44.8049 35.85 44.6049 35.9833 44.4383 36.15C44.1716 36.3833 43.8549 36.5 43.4883 36.5Z" fill="#9DCC38"/>
<path d="M55.7457 36.7C55.5124 36.7 55.229 36.6167 54.8957 36.45C54.729 36.35 54.5957 36.2167 54.4957 36.05C54.4624 35.95 54.379 35.95 54.2457 36.05C54.1457 36.1167 54.0624 36.1167 53.9957 36.05C53.8957 35.95 53.7957 35.8833 53.6957 35.85C53.5624 35.85 53.4957 35.8 53.4957 35.7C53.4957 35.6 53.479 35.5167 53.4457 35.45C53.4457 35.35 53.4124 35.2667 53.3457 35.2C53.1457 35.1333 53.0124 34.9667 52.9457 34.7C52.9124 34.6 52.879 34.5167 52.8457 34.45C52.8124 34.35 52.7624 34.25 52.6957 34.15C52.629 34.0167 52.5957 33.9 52.5957 33.8C52.5624 33.7 52.529 33.6167 52.4957 33.55C52.4957 33.45 52.4624 33.35 52.3957 33.25C52.3624 33.0167 52.2957 32.8 52.1957 32.6C52.0957 32.4 52.0124 32.1833 51.9457 31.95C51.879 31.8167 51.8457 31.6333 51.8457 31.4C51.8457 30.8 51.9457 30.25 52.1457 29.75C52.3124 29.45 52.3624 29.15 52.2957 28.85C52.2624 28.7167 52.2624 28.5833 52.2957 28.45C52.3624 28.3167 52.379 28.1833 52.3457 28.05C52.3124 27.9167 52.279 27.8 52.2457 27.7C52.2457 27.6 52.2457 27.4833 52.2457 27.35C52.2124 27.2833 52.1957 27.2 52.1957 27.1C52.1957 26.9 52.1957 26.7 52.1957 26.5C52.1957 26.2667 52.1624 26.0333 52.0957 25.8C52.0624 25.7 52.0457 25.55 52.0457 25.35V23.5C52.0124 23.0667 51.9624 22.6333 51.8957 22.2C51.829 21.7667 51.7457 21.3333 51.6457 20.9C51.6457 20.8 51.629 20.7 51.5957 20.6C51.5957 20.5 51.5957 20.4 51.5957 20.3C51.5957 19.5667 51.479 18.85 51.2457 18.15V17.7C51.3124 17.3333 51.279 17.05 51.1457 16.85C51.1124 16.7167 51.0957 16.5333 51.0957 16.3V16.25C51.0957 15.9167 51.079 15.5833 51.0457 15.25C51.0457 14.9167 51.0624 14.5833 51.0957 14.25C51.1624 13.65 51.1624 13.0167 51.0957 12.35C51.0957 12.0833 51.0957 11.8167 51.0957 11.55C51.0957 11.2833 51.079 11.0333 51.0457 10.8V10.5C51.1124 10.3333 51.1457 10.1833 51.1457 10.05C51.1457 9.91667 51.1457 9.78333 51.1457 9.65C51.1457 9.25 51.129 8.86667 51.0957 8.5C51.0957 8.1 51.0624 7.71667 50.9957 7.35C50.9957 7.25 50.9957 7.15 50.9957 7.05C50.9957 6.91667 50.979 6.8 50.9457 6.7C50.9457 6.46666 50.8624 6.26666 50.6957 6.1L50.3457 5.8C50.0124 5.6 49.7957 5.28333 49.6957 4.85C49.6624 4.78333 49.6457 4.73333 49.6457 4.7C49.6457 4.63333 49.629 4.56667 49.5957 4.5C49.529 4.33333 49.5624 4.18333 49.6957 4.05C49.7957 3.91667 49.8624 3.78333 49.8957 3.65C49.8957 3.55 49.9124 3.46667 49.9457 3.4C50.0124 3.3 50.0624 3.2 50.0957 3.1C50.129 3 50.1624 2.88333 50.1957 2.75C50.2624 2.65 50.3124 2.61666 50.3457 2.65C50.579 2.65 50.7457 2.61666 50.8457 2.55C51.079 2.38333 51.329 2.35 51.5957 2.45C51.6624 2.48333 51.7624 2.46667 51.8957 2.4C51.929 2.4 51.9457 2.38333 51.9457 2.35C52.1124 2.18333 52.2957 2.1 52.4957 2.1C52.6957 2.06667 52.9124 2.06667 53.1457 2.1C53.179 2.1 53.2124 2.11666 53.2457 2.15C53.279 2.15 53.3124 2.15 53.3457 2.15C53.6124 2.21667 53.8624 2.28333 54.0957 2.35C54.3624 2.38333 54.6124 2.38333 54.8457 2.35C55.0124 2.35 55.179 2.36666 55.3457 2.4C55.5457 2.43333 55.729 2.45 55.8957 2.45C56.029 2.45 56.1457 2.46667 56.2457 2.5C56.379 2.53333 56.4957 2.56666 56.5957 2.6C56.729 2.63333 56.8457 2.68333 56.9457 2.75C57.0457 2.78333 57.1624 2.8 57.2957 2.8C57.4624 2.83333 57.5957 2.86666 57.6957 2.9C57.829 2.93333 57.9624 2.98333 58.0957 3.05C58.529 3.28333 58.9624 3.5 59.3957 3.7C59.5957 3.8 59.779 3.93333 59.9457 4.1C60.179 4.26667 60.379 4.36667 60.5457 4.4C60.579 4.4 60.6124 4.41666 60.6457 4.45C60.679 4.45 60.7124 4.45 60.7457 4.45C60.779 4.48333 60.8124 4.5 60.8457 4.5C60.879 4.5 60.9124 4.51666 60.9457 4.55C61.1124 4.71667 61.3124 4.85 61.5457 4.95C61.8124 5.01667 62.029 5.13333 62.1957 5.3C62.2624 5.36666 62.3624 5.43333 62.4957 5.5C62.7624 5.6 62.9957 5.75 63.1957 5.95C63.2624 6.01667 63.3124 6.05 63.3457 6.05C63.479 6.05 63.629 6.13333 63.7957 6.3L64.8457 7.4C64.979 7.53333 65.079 7.65 65.1457 7.75C65.3124 7.98333 65.4957 8.2 65.6957 8.4C65.8957 8.6 66.0957 8.8 66.2957 9C66.3624 9.06666 66.429 9.15 66.4957 9.25C66.5957 9.31666 66.6624 9.4 66.6957 9.5C66.729 9.56667 66.779 9.63333 66.8457 9.7C66.9124 9.73333 66.9624 9.78333 66.9957 9.85C67.3624 10.25 67.7124 10.6667 68.0457 11.1C68.4124 11.5333 68.7457 11.9833 69.0457 12.45C69.2124 12.6833 69.3624 12.9333 69.4957 13.2C69.629 13.4667 69.7457 13.7333 69.8457 14C69.9457 14.2333 70.0457 14.4667 70.1457 14.7C70.279 14.9333 70.3957 15.1667 70.4957 15.4C70.5957 15.7667 70.7124 16.1 70.8457 16.4C70.979 16.8333 71.1124 17.25 71.2457 17.65C71.379 18.05 71.4957 18.4833 71.5957 18.95L71.7457 19.6C71.7457 19.8667 71.7457 20.15 71.7457 20.45C71.779 20.7167 71.7957 21 71.7957 21.3C71.7957 21.4333 71.779 21.55 71.7457 21.65C71.7457 21.75 71.7124 21.8667 71.6457 22C71.579 22.2 71.5457 22.3833 71.5457 22.55C71.5124 22.8833 71.429 23.2 71.2957 23.5C71.1957 23.8 71.079 24.0833 70.9457 24.35C70.6457 24.8833 70.379 25.4167 70.1457 25.95C70.079 26.0833 70.0124 26.2167 69.9457 26.35C69.9124 26.45 69.8624 26.5667 69.7957 26.7L69.4957 27.3C69.2624 27.7667 68.979 28.2333 68.6457 28.7C68.3457 29.1333 68.0124 29.55 67.6457 29.95C67.5124 30.1167 67.3457 30.2833 67.1457 30.45C66.979 30.5833 66.8124 30.7333 66.6457 30.9C66.3124 31.2 65.979 31.5 65.6457 31.8C65.3124 32.0667 64.9624 32.3333 64.5957 32.6C64.2624 32.8333 63.9124 33.05 63.5457 33.25C63.2124 33.45 62.8457 33.6167 62.4457 33.75C62.2457 33.7833 62.0457 33.8833 61.8457 34.05C61.6457 34.1833 61.429 34.3167 61.1957 34.45C60.9957 34.5833 60.779 34.7333 60.5457 34.9C60.4457 34.9333 60.3457 34.9833 60.2457 35.05C60.1457 35.0833 60.029 35.1167 59.8957 35.15C59.7957 35.1833 59.679 35.2167 59.5457 35.25C59.4457 35.2833 59.3457 35.3167 59.2457 35.35C59.1124 35.3833 58.979 35.4333 58.8457 35.5C58.7457 35.5667 58.6457 35.65 58.5457 35.75C58.3124 35.9167 58.0624 36.05 57.7957 36.15C57.529 36.2833 57.2624 36.4333 56.9957 36.6C56.929 36.6333 56.8124 36.65 56.6457 36.65C56.5457 36.6833 56.4457 36.6833 56.3457 36.65C56.2457 36.65 56.1457 36.65 56.0457 36.65V36.7H55.7457ZM57.7457 31.1C58.079 31.1 58.3624 31.0333 58.5957 30.9C58.8624 30.8 59.1124 30.6833 59.3457 30.55C59.579 30.4167 59.7957 30.2667 59.9957 30.1L60.5957 29.5C60.929 29.2333 61.229 28.95 61.4957 28.65C61.7957 28.35 62.1124 28.0833 62.4457 27.85C62.5124 27.7833 62.5457 27.75 62.5457 27.75C62.679 27.6167 62.7957 27.5 62.8957 27.4C63.029 27.2667 63.1457 27.1333 63.2457 27C63.3124 26.9333 63.3957 26.85 63.4957 26.75C63.5957 26.65 63.6624 26.5667 63.6957 26.5C63.829 26.2667 64.0124 26.0667 64.2457 25.9C64.4124 25.8 64.5124 25.7 64.5457 25.6C64.6124 25.4333 64.6957 25.2667 64.7957 25.1C64.929 24.9333 65.0624 24.7833 65.1957 24.65C65.3624 24.45 65.529 24.15 65.6957 23.75L65.8957 23.25C66.0957 22.7833 66.1957 22.35 66.1957 21.95C66.229 21.85 66.2457 21.7 66.2457 21.5C66.279 21 66.2457 20.4667 66.1457 19.9C66.1124 19.7333 66.079 19.5667 66.0457 19.4C66.0124 19.2333 65.9957 19.0833 65.9957 18.95C65.9624 18.8167 65.929 18.7 65.8957 18.6C65.8957 18.4667 65.8624 18.35 65.7957 18.25C65.729 18.1167 65.679 17.9833 65.6457 17.85C65.6124 17.7167 65.579 17.5833 65.5457 17.45C65.5457 17.2167 65.5124 17.0167 65.4457 16.85C65.379 16.65 65.3124 16.45 65.2457 16.25C65.1457 16.05 65.0457 15.85 64.9457 15.65C64.8457 15.4167 64.7624 15.1833 64.6957 14.95L64.6457 14.75C64.5457 14.6167 64.4624 14.4833 64.3957 14.35C64.3624 14.1833 64.3124 14.0333 64.2457 13.9C64.1124 13.6 63.979 13.3 63.8457 13C63.7457 12.7 63.6124 12.4167 63.4457 12.15C63.279 11.85 63.0957 11.55 62.8957 11.25C62.729 10.95 62.5124 10.6833 62.2457 10.45C61.479 9.61667 60.5957 8.86667 59.5957 8.2C58.9957 7.76667 58.3957 7.48333 57.7957 7.35C57.5624 7.28333 57.2957 7.23333 56.9957 7.2C56.6957 7.13333 56.4124 7.08333 56.1457 7.05C56.0457 7.05 55.9624 7.08333 55.8957 7.15C55.729 7.28333 55.6457 7.45 55.6457 7.65C55.6457 7.88333 55.629 8.13333 55.5957 8.4C55.5957 8.63333 55.5957 8.88333 55.5957 9.15C55.6624 9.61667 55.6457 10 55.5457 10.3C55.5124 10.4333 55.479 10.5667 55.4457 10.7C55.4457 10.8333 55.4624 10.9833 55.4957 11.15C55.5624 11.35 55.5457 11.5333 55.4457 11.7C55.3457 11.9 55.3457 12.1167 55.4457 12.35C55.579 12.6167 55.6124 12.95 55.5457 13.35C55.4457 13.75 55.4457 14.15 55.5457 14.55C55.579 14.6833 55.5957 14.8167 55.5957 14.95C55.629 15.0833 55.629 15.2333 55.5957 15.4C55.5957 15.7667 55.6124 16.1333 55.6457 16.5C55.7124 16.8667 55.7624 17.2333 55.7957 17.6C55.7957 17.6667 55.829 17.7667 55.8957 17.9V18.7C55.8957 18.7667 55.879 18.85 55.8457 18.95C55.8457 19.0167 55.8624 19.0833 55.8957 19.15C55.9624 19.4167 56.0124 19.7 56.0457 20C56.1124 20.2667 56.179 20.5333 56.2457 20.8C56.2457 20.8667 56.2624 20.95 56.2957 21.05C56.329 21.1167 56.3457 21.2 56.3457 21.3C56.3457 21.5333 56.3624 21.7667 56.3957 22C56.429 22.2333 56.4624 22.4833 56.4957 22.75C56.5957 23.6833 56.7457 24.6333 56.9457 25.6C57.0457 26 57.0957 26.4167 57.0957 26.85C57.0957 26.95 57.0957 27.0667 57.0957 27.2C57.0957 27.3 57.1124 27.4 57.1457 27.5C57.2124 27.7333 57.2457 27.9667 57.2457 28.2C57.2457 28.4333 57.2457 28.6667 57.2457 28.9C57.2457 28.9667 57.229 29.05 57.1957 29.15C57.1957 29.25 57.2124 29.3333 57.2457 29.4C57.3124 29.5667 57.3457 29.7333 57.3457 29.9C57.3457 30.0333 57.3457 30.1833 57.3457 30.35C57.3457 30.4833 57.379 30.65 57.4457 30.85C57.4457 31.0167 57.5457 31.1 57.7457 31.1Z" fill="#EF5C53"/>
<path d="M84.8664 38.45L84.0164 38.3C83.5831 38.2333 83.1331 38.1667 82.6664 38.1C82.2331 38.0333 81.7831 37.9833 81.3164 37.95C80.8497 37.95 80.3831 37.8167 79.9164 37.55C79.4831 37.3167 79.1831 36.95 79.0164 36.45C78.9831 36.2833 78.9331 36.1167 78.8664 35.95C78.8331 35.7833 78.7997 35.6167 78.7664 35.45C78.7664 35.05 78.8497 34.75 79.0164 34.55C79.1831 34.3833 79.3164 34.2167 79.4164 34.05C79.5497 33.8833 79.6831 33.7333 79.8164 33.6C79.8831 33.5333 79.9497 33.4833 80.0164 33.45C80.0831 33.4167 80.1497 33.3833 80.2164 33.35C80.3831 33.25 80.5497 33.1833 80.7164 33.15C80.8831 33.0833 81.0497 33.0333 81.2164 33C81.2831 32.9667 81.3331 32.9667 81.3664 33C81.4331 33 81.4831 33 81.5164 33C81.6831 33.0333 81.8664 33.0667 82.0664 33.1C82.2664 33.1 82.4497 33.1333 82.6164 33.2L84.7164 33.5C85.1831 33.5667 85.5997 33.5 85.9664 33.3C86.0997 33.2333 86.2164 33.1667 86.3164 33.1C86.4497 33.0333 86.5664 32.9667 86.6664 32.9C87.3997 32.4667 88.0331 32.0167 88.5664 31.55C88.9664 31.1833 89.3497 30.8167 89.7164 30.45C90.0831 30.0833 90.4164 29.6833 90.7164 29.25C90.9497 28.95 91.0997 28.65 91.1664 28.35C91.2331 28.0167 91.2497 27.6833 91.2164 27.35L91.0664 26.95C91.0331 26.7833 90.9664 26.65 90.8664 26.55C90.7664 26.45 90.6664 26.3333 90.5664 26.2C90.3664 26.0333 90.1664 25.85 89.9664 25.65C89.7997 25.45 89.6164 25.2833 89.4164 25.15C88.9164 24.75 88.4164 24.3667 87.9164 24C87.4497 23.6333 86.9664 23.2667 86.4664 22.9C86.4331 22.8333 86.3331 22.7667 86.1664 22.7C85.8664 22.5 85.5664 22.2833 85.2664 22.05C84.9997 21.7833 84.7331 21.5333 84.4664 21.3C84.1331 20.9667 83.7664 20.65 83.3664 20.35C83.1664 20.25 82.9831 20.0833 82.8164 19.85C82.6831 19.6833 82.4831 19.5167 82.2164 19.35C81.9831 19.2167 81.7664 19.0667 81.5664 18.9C81.3664 18.7 81.1664 18.5167 80.9664 18.35L80.3164 17.75C80.1831 17.5833 80.0331 17.4333 79.8664 17.3C79.7331 17.1333 79.5831 16.9667 79.4164 16.8C79.3497 16.6333 79.2497 16.5 79.1164 16.4C79.0164 16.3 78.9164 16.1833 78.8164 16.05C78.7831 15.9833 78.7331 15.9167 78.6664 15.85C78.5997 15.75 78.5497 15.65 78.5164 15.55C78.3164 15.15 78.0997 14.75 77.8664 14.35C77.6664 13.95 77.4831 13.5333 77.3164 13.1C77.2164 12.8333 77.1164 12.5833 77.0164 12.35C76.9497 12.0833 76.8831 11.8333 76.8164 11.6C76.7831 11.3333 76.7164 11.1 76.6164 10.9C76.5497 10.6667 76.4831 10.4333 76.4164 10.2C76.3497 9.83333 76.2664 9.48333 76.1664 9.15C76.0997 8.78333 76.0331 8.43333 75.9664 8.1L75.8664 7.7C75.8331 7.33333 75.8331 6.98333 75.8664 6.65C75.9331 6.18333 76.0331 5.76667 76.1664 5.4C76.2997 5 76.5164 4.68333 76.8164 4.45C77.1497 4.18333 77.4831 3.91666 77.8164 3.65C78.1497 3.38333 78.4997 3.16667 78.8664 3C78.9331 3 78.9831 2.98333 79.0164 2.95C79.3497 2.68333 79.7164 2.5 80.1164 2.4C80.5164 2.26666 80.9164 2.15 81.3164 2.05C82.9164 1.58333 84.5664 1.23333 86.2664 0.999998H86.7664C87.0997 0.999998 87.4164 0.999998 87.7164 0.999998C88.0164 0.999998 88.3331 0.983331 88.6664 0.949998C89.0664 0.949998 89.4664 0.999999 89.8664 1.1C90.2664 1.16667 90.6497 1.28333 91.0164 1.45C91.2831 1.58333 91.5497 1.73333 91.8164 1.9C92.0831 2.03333 92.3331 2.18333 92.5664 2.35C92.8331 2.55 92.9997 2.76666 93.0664 3L93.2164 3.35C93.3831 3.65 93.4664 3.96666 93.4664 4.3C93.4997 4.6 93.4831 4.91667 93.4164 5.25C93.4164 5.35 93.3997 5.46666 93.3664 5.6C93.3664 5.7 93.3664 5.8 93.3664 5.9C93.2664 6.63333 92.9164 7.2 92.3164 7.6C91.9497 7.93333 91.4664 8.06667 90.8664 8C90.7331 7.93333 90.6664 7.96666 90.6664 8.1C90.6664 8.23333 90.5831 8.3 90.4164 8.3H90.1164C89.9164 8.3 89.7164 8.2 89.5164 8C89.3497 7.83333 89.2664 7.7 89.2664 7.6C89.2664 7.46667 89.3331 7.36667 89.4664 7.3C89.3997 7.13333 89.3331 6.98333 89.2664 6.85C89.1997 6.71667 89.1331 6.61667 89.0664 6.55C88.9664 6.38333 88.8164 6.26667 88.6164 6.2C88.4497 6.16667 88.2831 6.13333 88.1164 6.1C87.9497 6.06666 87.7831 6.03333 87.6164 6C87.4831 6 87.3331 6 87.1664 6C86.9997 5.96667 86.8331 5.93333 86.6664 5.9C86.5664 5.86666 86.4164 5.88333 86.2164 5.95C86.1164 5.98333 86.0164 6.01667 85.9164 6.05C85.8164 6.05 85.6997 6.03333 85.5664 6C85.4664 6 85.3497 6 85.2164 6C85.1164 6 84.9997 6.03333 84.8664 6.1L83.9164 6.25C83.3831 6.35 82.8664 6.55 82.3664 6.85C82.2664 6.88333 82.1664 6.91667 82.0664 6.95C81.9664 6.98333 81.8664 6.98333 81.7664 6.95C81.5664 6.91667 81.3997 6.96667 81.2664 7.1C81.2331 7.16667 81.1497 7.21666 81.0164 7.25C80.9164 7.25 80.8331 7.28333 80.7664 7.35C80.6331 7.48333 80.5664 7.61667 80.5664 7.75C80.5997 7.81667 80.6164 7.91667 80.6164 8.05L81.6664 11.1C81.8664 11.6333 82.1164 12.1333 82.4164 12.6C82.7497 13.0333 83.0997 13.4667 83.4664 13.9C84.0331 14.5667 84.6164 15.1333 85.2164 15.6L86.8164 16.95C87.1497 17.25 87.4997 17.5333 87.8664 17.8C88.2331 18.0667 88.5831 18.3333 88.9164 18.6C89.4164 18.9667 89.9164 19.35 90.4164 19.75C90.9164 20.1167 91.4164 20.5 91.9164 20.9C92.3164 21.2333 92.6997 21.5667 93.0664 21.9C93.4664 22.2 93.8331 22.5333 94.1664 22.9C94.3997 23.1667 94.6331 23.4333 94.8664 23.7C95.0997 23.9667 95.2997 24.2667 95.4664 24.6C95.6997 24.9667 95.8997 25.4 96.0664 25.9C96.2664 26.5333 96.3497 27.1333 96.3164 27.7C96.2831 27.7667 96.2664 27.8667 96.2664 28C96.2664 28.4 96.2164 28.7833 96.1164 29.15C96.0497 29.4833 95.9331 29.8333 95.7664 30.2C95.5997 30.5333 95.4164 30.8833 95.2164 31.25C95.0497 31.5833 94.8497 31.9167 94.6164 32.25C94.2831 32.6833 93.9331 33.1 93.5664 33.5C93.2331 33.8667 92.8497 34.2333 92.4164 34.6C92.1831 34.8 91.9497 35.0167 91.7164 35.25C91.4831 35.45 91.2331 35.6333 90.9664 35.8C90.7997 35.9333 90.6331 36.05 90.4664 36.15C90.2997 36.2833 90.1331 36.4167 89.9664 36.55C89.8331 36.6167 89.6997 36.7 89.5664 36.8C89.4331 36.9 89.2997 37 89.1664 37.1C89.0331 37.2333 88.8664 37.3333 88.6664 37.4C88.4997 37.5 88.3331 37.5833 88.1664 37.65L86.7164 38.25C86.4164 38.35 86.1164 38.4167 85.8164 38.45C85.5164 38.4833 85.1997 38.4833 84.8664 38.45Z" fill="#63C7FD"/>
</svg>
